<svg xmlns="http://www.w3.org/2000/svg" viewBox="0 0 400 116">
  <rect width="400.32809" height="116.35553" y="-.35552442" fill="#302e21" fill-rule="evenodd" rx="0"/>
  <path fill="#fff" d="M57.455078 15.453125c-3.097999 1.248783-6.088326 2.725209-8.941406 4.414063-1.90211 1.125862-3.743726 2.345568-5.513672 3.65625-1.769907 1.310721-3.468762 2.712291-5.087891 4.199218-.809928.74377-1.598486 1.508677-2.367187 2.294922-.768033.785562-1.515684 1.591081-2.240234 2.417969-1.450069 1.654842-2.810324 3.391189-4.072266 5.205078-1.261668 1.813495-2.425482 3.704111-3.480469 5.667969-1.58248 2.945786-2.921287 6.056532-3.986328 9.316406v.125c-1.234499 3.815187-2.134177 7.690972-2.539063 11.513672.273721.701744.996113 2.001147 1.625 2.658203.126123.131849.247044.23841.361329.308594.227979.140048.423896.136807.552734-.087891.19485-1.925673.498137-3.811802.900391-5.697266.40231-1.885328.903699-3.769724 1.498046-5.691406v-.125c4.41953-14.15485 13.696003-25.652754 25.472657-33.076172.905931-.571033 1.827266-1.118445 2.761719-1.640625 1.868924-1.044354 3.793556-1.988865 5.763671-2.830078.04054-.08741.070024-.188843.089844-.298828.07928-.439938-.000936-1.02912-.193359-1.515625-.09621-.243252-.22101-.460602-.367188-.621094-.07309-.08025-.15104-.145603-.234375-.193359h-.001953zm49.560542 0c-.66722.381072-1.02938 1.929451-.70507 2.628906 15.76092 6.729697 28.55865 20.124843 33.99804 37.546875v.125c1.1887 3.843363 2.00875 7.53756 2.39844 11.388672.51537.89856 2.10136-1.756116 2.53906-2.878906-.40465-3.8227-1.3048-7.698486-2.53906-11.513672v-.125c-5.68064-17.386345-19.16799-30.511911-35.69141-37.171875zM57.457031 30.847656c-1.303449.737433-2.575489 1.532766-3.808593 2.384766-.616127.425723-1.223504.866808-1.820313 1.320312-.5972.45382-1.185048.921253-1.761719 1.402344-6.919932 5.773054-12.319853 13.490936-15.18164 22.677734v.25c-.490171 1.588611-.883126 3.177607-1.185547 4.765626-.201614 1.058678-.363183 2.117866-.486328 3.173828-.24629 2.111923-.338626 4.215413-.294922 6.304687.03278 1.566956.142037 3.12539.322265 4.671875.240302 2.06198.605506 4.103392 1.080078 6.115234 1.375341 1.399615 2.765252 2.225685 4.375 3.503907.0055-.08878.01902-.165817.03711-.232422.01792-.06595.040476-.121802.066406-.171875v-.001953c.0522-.100351.117386-.174172.175781-.246094v-.001953c.08776-.107842.163166-.210159.166016-.388672v-.001953c.000916-.05976-.006097-.127377-.023437-.207031-.138883-.637232-.432141-1.616425-1.550782-5.75586-.260787-.965021-.489401-2.140308-.664062-3.455078-.01272-.09575-.030889-.17606-.042969-.273437-.0074-.05969-.010418-.12916-.017578-.189453-.164615-1.387487-.266326-2.924505-.261719-4.585938.0024-.867161.032453-1.765581.095703-2.689453.06325-.923872.158756-1.873503.292969-2.841797.06711-.484147.143725-.973848.230469-1.466797.173487-.985897.388816-1.98616.648437-2.998047.129811-.505943.270587-1.015254.423828-1.52539v-.25c.41823-1.379042.895408-2.717444 1.429688-4.015625.533824-1.297073 1.124105-2.554602 1.765625-3.769532 1.925604-3.646769 4.31745-6.919692 7.066406-9.800781.458109-.480142.926895-.947994 1.404297-1.40625 2.386936-2.291276 5.008004-4.308256 7.800781-6.039062.277439-.295165.267388-1.948613.148438-3.148438v-.001953c-.03971-.399991-.09088-.74855-.148438-.980469-.03234-.129373-.28125-.125-.28125-.125zm48.949219 0s-.06261-.001398-.12891.013672c-.0665.01515-.13629.04654-.15234.111328-.11512.463838-.20715 1.398292-.22461 2.265625-.0125.618909.01661 1.192996.09961 1.548828.004.01816.00477.04556.00977.0625.0312.117091.0688.20447.11523.253907 2.23423 1.384645 4.35912 2.952495 6.3418 4.697265.49566.436192.9816.883542 1.45898 1.341797.47739.458255.94621.928062 1.4043 1.408203.45776.47981.90628.969217 1.34375 1.470703 2.18926 2.509531 4.11792 5.289063 5.72265 8.328125.32091.607725.62741 1.225149.92188 1.853516v.001953c.2942.627848.57696 1.265785.84375 1.914063v.001953c.26677.64829.51947 1.306068.75781 1.974609.23876.669677.46266 1.349242.67188 2.039063v.25c.15326.510151.294 1.017484.42382 1.523437v.001953c.12964.505327.24794 1.008206.35547 1.507813.86157 4.002453 1.03518 7.795185.8418 10.988281-.0483.798141-.12004 1.558535-.20898 2.275391v.001953c-.012.09667-.03027.176423-.04297.271484-.17468 1.314754-.40328 2.490057-.66406 3.455078-1.11864 4.139435-1.41166 5.118628-1.55079 5.75586-.0174.07965-.02443.147271-.02343.207031V86.375c.003.178513.0782.28083.16601.388672v.001953c.0584.07192.12357.145743.17578.246094.0103.01966.01609.046509.02539.068359.0143.03409.03002.06496.04102.105469.0181.0666.03161.143641.03711.232422 1.20686-.958482 2.28968-1.662767 3.33594-2.544922.3487-.294246.69517-.60914 1.03906-.958985.47451-2.011842.83979-4.053254 1.08008-6.115234.18022-1.546485.28947-3.104919.32226-4.671875.0219-1.044637.01004-2.09325-.03906-3.144531-.0973-2.102563-.33898-4.216628-.74219-6.333984-.30241-1.58802-.69537-3.177017-1.18554-4.765626v-.25c-2.86179-9.186797-8.26168-16.904647-15.18164-22.677734h-.00196c-1.15302-.96186-2.34738-1.870894-3.58008-2.722656h-.00195c-.61613-.425702-1.24072-.836998-1.875-1.234375h-.00195c-.63475-.397645-1.27795-.78166-1.92969-1.150391zm175.70313 2.439453s-2.57287.0143-2.97266.03125c-.39979.01695-.50667.0069-.83203.13086-.32498.124025-.91736.558825-1.30274 1.029297-.38538.470472-.52341 1.091549-.64453 1.527343-.12116.435794-.09375.882813-.09375.882813l-.00976 2.410156-2.48047.011719-.06446 2.013672 2.55664-.013672-.01171 11.074219 2.02539-.013672.01172-11.035156h3.97265l.01367-2.025391h-3.99804s-.00898-1.341809.01172-1.919922c.0215-.585658.08939-1.128338.3164-1.474609.22707-.346271.55905-.460994.76953-.548828.21048-.08784.58203-.080079.58203-.080079h2.29297l.03907-1.99414-.18164-.00586zm56.17773 1.007813c-.009.664458-.01367 5.884765-.01367 5.884766-.57933-.535942-2.24175-1.436356-3.57617-1.435547-.19895.000358-.39778.012739-.59571.037109-3.27319.398801-5.66077 3.924248-5.33594 7.878906.32466 3.954851 3.2393 6.845012 6.51368 6.458985 3.27489-.38574 4.55836-2.853574 4.58398-3.867188l-.00195-14.951172c-.53448-.02887-.89551-.015269-1.57422-.005859zm14.15625 0c-.67871-.0095-1.04169-.023051-1.57617.005859l-.00196 14.951172c.0256 1.013614 1.31109 3.481448 4.58594 3.867188 3.27439.386027 6.18902-2.504134 6.51367-6.458985.32484-3.954658-2.06274-7.480105-5.33593-7.878906-.19793-.02437-.39676-.036749-.59571-.037109-1.33442-.000809-2.99684.899605-3.57617 1.435547 0-.000001-.00497-5.220308-.01367-5.884766zm-49.18945 4.070312s-3.59318.141448-5.31446.871094c-.37146.157461-.9068.411222-1.25195.689453-.14329.115506-.29555.3482-.34375.4375-.16067.297508-.10742 1.007813-.10742 1.007813l.02539 11.0625h2.08008v-10.41211s-.01976-.403157.02734-.552734c.0471-.149577.10041-.217701.16211-.300781.23633-.318247 1.20136-.562505 1.9375-.728516.92357-.208279 2.77734-.287109 2.77734-.287109l.00782-1.78711zm-14.91407.236328a6.4306323 7.004771 0 0 0-.64062.033204 6.4306323 7.004771 0 0 0-5.75586 7.662109 6.4306323 7.004771 0 0 0 7.02344 6.279297 6.4306323 7.004771 0 0 0 5.77734-7.640625l-.00391-.044922a6.4306323 7.004771 0 0 0-6.40039-6.289063zm33.41407.138672c-.19791-.0094-.39932-.009046-.60352.001954-3.26711.17539-5.55611 2.754291-5.44531 6.324218.13653 4.398518 1.66201 5.882111 2.95312 6.667969.58433.35566 1.79915.798565 2.88868.820313 1.34683.026879 2.43347-.236766 2.80273-.369141 1.59854-.585555 1.78746-.651517 1.94531-.996094.22901-.500035-.0332-1.720703-.0332-1.720703s-1.22036.694762-2.1836 1c-1.64713.521961-3.04571.209426-3.61914.015625-2.15909-.729734-2.7658-3.453791-2.83789-3.626953 0 0 1.54014-.015881 4.4043-.019531 1.6545-.0021 5.27734-.027344 5.27734-.027344-.0145-.727581-.04299-1.636676-.22265-3.474609-.13862-2.110695-2.35748-4.455431-5.32617-4.595704zm-12.92969.138672c-.19897.000621-.39778.012347-.5957.035156-3.27968.369262-5.67249 3.638614-5.34766 7.306641.32559 3.667385 3.24515 6.347501 6.52539 5.990235.70577-.07711 1.68929-.274556 2.36133-.544922.16047-.06456.52344-.267585.52344-.267578.002-.156028.00017-.429635 0-.789063.002.246403.0049.473288.0039.794922-.002.536964.01234 1.383746-.00586 1.947265 0 0-.19728.853926-.45703 1.210938-.25976.357012-1.01367.851562-1.01367.851562s-2.01878.119261-3.02148.13086c-1.18149.01367-3.50391-.103516-3.50391-.103516l.00976 1.832032s2.38472.061486 3.58204.060546c.78564-.000622 2.10114-.0745 2.86523-.152343.36212-.03689.40953-.04496.59961-.111329.16843-.05881.18974-.109895.45117-.287109.37476-.254038.89612-.646696 1.21094-1.054687.47126-.61072.73633-2.244141.73633-2.244141l-.03516-11.638672c-.0864-.404381-.974-1.52723-2.125-2.181641-.99935-.568187-2.29955-.784464-2.76367-.785156zm55.32031.429688l-2.1875.03125c0-.000001 1.75162 4.145453 2.65235 6.144531.84775 1.88148 2.45507 5.333984 2.45507 5.333984s.28403.466965.26563.894532c-.0289.671436-.36428 1.400055-.60742 1.847656-.35109.646342-.87305 1.414062-.87305 1.414062s-.34007.270609-.55664.361329c-.0919.03851-.98438.169921-.98438.169921l-1.04297.097657s-.26061-.004105-.32421.078125c-.13721.177449-.02564.499316.04297.830078.0427.205593.064.342089.15624.53125.05971.122228.08701.152217.13477.185547.10613.07395.13904.074265.37109.072265.55576-.0049 1.83501-.135301 2.16797-.269531.69985-.28214 1.3748-.701739 1.875-1.453125.93716-1.407749 1.28268-2.362095 2.35157-5.007813 1.0689-2.645716 4.27343-11.261718 4.27343-11.261718l-2.01172.089844-3.79492 9.982421s-1.59531-3.223319-2.25195-4.857421c-.65664-1.634104-2.11133-5.214844-2.11133-5.214844zm-29.36719.99414c1.39042-.00073 2.49424.829419 3.49805 1.941407 0 0 .01367 1.826052.04297 3.167968s.00195 4.048829.00195 4.048829c-.74937 1.08675-1.13821 1.958539-3.09375 2.169921-2.21387.07639-4.65877-2.131321-4.91015-5.195312-.25055-3.06392 1.46901-5.794799 4-6.103516.15315-.01907.30698-.028847.46093-.029297zm21.17578 0c.15396.00045.30779.010227.46094.029297 2.53099.308717 4.25055 3.039596 4 6.103516-.25138 3.063991-2.69628 5.271702-4.91015 5.195312-1.95554-.211382-2.34438-1.083172-3.09375-2.169921 0 0-.02745-2.706913.00195-4.048829.0293-1.341916.04297-3.167968.04297-3.167968 1.00381-1.111988 2.10762-1.942137 3.49804-1.941407zm-34.72851.113282c2.53507-.144188 4.31722 1.575718 4.32227 4.818359 0 0-.68997.011803-3.70508-.023437-2.31523-.02706-4.2168.009765-4.2168.009765-.19391-2.622838 1.06454-4.660498 3.59961-4.804687zm-32.90234.001953a4.6733119 5.127802 0 0 1 4.65039 4.607422l.00195.03125a4.6733119 5.127802 0 0 1-4.19531 5.59375 4.6733119 5.127802 0 0 1-5.10547-4.597657 4.6733119 5.127802 0 0 1 4.18164-5.609375 4.6733119 5.127802 0 0 1 .4668-.02539zm20.53125.167969c.46259.000683 1.32734.07726 1.91796.353515.68963.322565 1.10029.874381 1.52735 1.248047l-.00195 7.376953-.00391.138672c-.00008.0022.00008.003559 0 .005859 0 0-2.32718.591409-3.17383.685547-2.48944.274393-4.29186-1.834911-4.36133-4.68164-.0695-2.846729 1.15699-4.816433 3.64453-5.09961.14989-.01758.30048-.026714.45118-.027343zM59.289062 44.365234c-1.071184.819421-2.081352 1.680459-3.03125 2.587891-.316991.302814-.626164.61066-.929687.923828-.146119.150763-.286687.305774-.429687.458985-.450429.482556-.889067.973001-1.308594 1.480468-.552728.668589-1.078911 1.360452-1.578125 2.074219-.998428 1.427534-1.890557 2.946887-2.675781 4.568359-.196321.405375-.385323.816192-.56836 1.234375-.183281.418707-.359313.843565-.529297 1.275391-.16977.431267-.333712.867873-.490234 1.3125-.156739.445187-.305742.89661-.449219 1.355469v.125c-3.301243 10.660858-1.296865 21.651805 4.53711 30.253906.448756.661697.920657 1.309229 1.414062 1.941406.987092 1.264816 2.061027 2.46782 3.21875 3.59961l12.695312 3.753909.423829-.75c-.931447-.37741-1.832117-.795047-2.703125-1.250003h-.001954c-1.306469-.682443-2.543883-1.448938-3.708984-2.289063-.776728-.560071-1.520961-1.152717-2.232422-1.77539-1.779082-1.557083-3.349386-3.300506-4.699218-5.183594-.26992-.376507-.531172-.757233-.783204-1.144531-.504395-.775108-.971036-1.57093-1.402343-2.384766-.215535-.406639-.422217-.817234-.619141-1.232422-.393859-.830397-.750393-1.677002-1.068359-2.537109-.317956-.860086-.59776-1.733371-.837891-2.617188-.120238-.442534-.229714-.886626-.330078-1.333984-.100247-.446719-.191298-.89492-.271484-1.345703-.160263-.90093-.280687-1.80997-.359376-2.722656v-.001953c-.03929-.456023-.067367-.913256-.085937-1.371094v-.001953c-.01856-.45849-.027861-.917391-.025391-1.376953.0099-1.838255.188987-3.682281.544922-5.507813.177966-.912771.400586-1.820088.667969-2.720703 1.059244-3.497743 2.446199-6.221071 4.126953-8.585938 1.260608-1.773488 2.6874-3.345609 4.263672-4.890625.525418-.515028 1.066659-1.027388 1.625-1.542968.0066-.122974-.008499-.280548-.042969-.462891-.03459-.182997-.08899-.389244-.158203-.611328-.137767-.442348-.336868-.941571-.572266-1.416016-.23537-.474623-.505441-.923253-.785156-1.265625-.209786-.256779-.424304-.453213-.632812-.554687h-.001953c-.0695-.03381-.137384-.05693-.205079-.06836zm45.283208 0c-.0677.01145-.13558.03453-.20508.06836-.0698.03399-.14013.07882-.21094.132812-.0703.05362-.14049.140154-.21094.210938-.0705.07068-.14116.125635-.21093.210937-.14021.171396-.27774.369051-.41016.583985-.1321.214521-.25926.444336-.37695.68164-.2354.47443-.4345.973686-.57227 1.416016v.001953c-.13737.441497-.21431.826686-.20117 1.072266.55834.51561 1.09958 1.027924 1.625 1.542968.52542.515045 1.03593 1.033091 1.52734 1.560547 2.94852 3.164738 5.27442 6.669402 6.86328 11.916016.80215 2.701847 1.19798 5.471094 1.21289 8.228516.005.889713-.0319 1.77968-.10546 2.664062-.002.0286-.00286.057347-.00586.085938-.0786.914006-.19894 1.822385-.35938 2.724609-.0802.450783-.16928.898984-.26953 1.345703v.001953c-.0198.08839-.04581.175462-.06641.263672-.1877.803366-.40271 1.600428-.65429 2.386719-.41885 1.30908-.92493 2.590341-1.51563 3.835937-.19692.415188-.4036.825783-.61914 1.232422-.43124.813836-.89801 1.609658-1.40234 2.384766-.25203.387298-.51329.768024-.78321 1.144531-.27019.376967-.54805.74788-.83593 1.113281-.57513.729936-1.18582 1.43594-1.83008 2.115235-.32211.339656-.65315.672174-.99219.998046-.33905.325867-.68724.645695-1.04297.957032-.71108.622334-1.4542 1.215588-2.23047 1.77539-1.165477.840466-2.403931 1.606381-3.710934 2.289063-.87102.454956-1.771663.872593-2.703125 1.250003l.421875.75 12.697264-3.753909c1.15776-1.13179 2.23169-2.3348 3.21875-3.59961.49342-.632174.96529-1.279713 1.41406-1.941406 4.93614-7.278657 7.12944-16.2678 5.6875-25.320313-.26214-1.645905-.64442-3.293432-1.15234-4.933593v-.125c-.14347-.458859-.29248-.910282-.44922-1.355469-.46956-1.333875-.99893-2.606158-1.58789-3.822266-.39263-.810738-.81193-1.596269-1.25781-2.357422-.44587-.761152-.91872-1.497167-1.41797-2.210937-.2496-.356884-.5046-.709236-.76758-1.054687-.52598-.690906-1.07863-1.359031-1.6582-2.00586-.86899-.969887-1.79919-1.892549-2.78906-2.769531h-.00196c-.66019-.584846-1.34642-1.149032-2.06054-1.695313zM66.625 53.5c-.910144.725112-1.773434 1.52043-2.582031 2.378906-.403797.428706-.795578.872457-1.169922 1.332032v.001953c-.3743.45958-.734075.933021-1.076172 1.421875v.001953c-.342052.48886-.66751.991274-.974609 1.507812v.001953c-.6144 1.033583-1.1573 2.121029-1.615235 3.25586-.229075.567684-.43726 1.147654-.623047 1.738281v.125c-.225822.724874-.411687 1.452399-.566406 2.179687-.01592.07485-.035601.149754-.050781.22461-.488559 2.408756-.592432 4.81703-.349609 7.160156.12138 1.171263.328324 2.325525.61914 3.455078.581634 2.259106 1.49309 4.419114 2.699219 6.410156.402003.663702.836601 1.307724 1.302734 1.931641.699258.935848 1.470489 1.823972 2.306641 2.65625.279017.277782.563816.54946.857422.814453.293254.264677.59291.522144.90039.773438h.001954c.307101.250952.620443.497395.941406.734375h.001953c.320967.236951.647922.467096.982422.689453.670325.445631 1.367152.860868 2.089843 1.24414.361097.191514.727884.373823 1.101563.548829 1.121535.525327 2.298395.974469 3.527344 1.339843 1.683293.500468 3.39174.793143 5.083984.923828h.001953c.563425.04347 1.125408.068736 1.683594.078126.125648.001999.29818-.000571.423828 0 2.235577-.0376 4.527093-.334904 6.771484-1.001954 2.456739-.730448 4.707165-1.796912 6.716797-3.132812.669891-.445312 1.312775-.921238 1.927735-1.423828.307472-.251288.609098-.508768.902344-.773438.29361-.264994.578411-.536671.857421-.814453 4.737751-4.716249 7.348271-11.229935 7.025391-18.007812-.038-.797408-.11583-1.598195-.23633-2.400391-.0603-.401713-.13135-.803104-.21289-1.205078-.0814-.401358-.17256-.802132-.27539-1.203125-.10283-.400992-.21719-.801169-.3418-1.201172v-.125c-.5571-1.771107-1.31479-3.443753-2.23632-4.994141l-.00196-.001953c-.10852-.182521-.23076-.354074-.34375-.533203-.20696-.32799-.40947-.660286-.63086-.976562-.3421-.488847-.70187-.962305-1.07617-1.421875v-.001953c-.37407-.459233-.76449-.903624-1.167968-1.332032l-.001953-.001953c-.80831-.85805-1.672258-1.652141-2.582031-2.376953-.747799.673862-1.508252 1.292301-2.300781 1.855469-.792529.563167-1.617133 1.071062-2.494141 1.52539.835614.573135 1.621528 1.212228 2.351563 1.914063 2.190105 2.105505 3.872007 4.768082 4.841797 7.847656.380734 1.220671.627074 2.450564.746094 3.675781v.001953c.29716 3.062378-.19805 6.090974-1.355469 8.835938-.46306 1.098219-1.032193 2.150505-1.699219 3.142578-.333513.496037-.690855.977836-1.072266 1.441406-.38141.463571-.787598.908787-1.214844 1.335938-2.136225 2.135753-4.831554 3.791941-7.958984 4.720703-.830468.246653-1.652139.424339-2.472656.544922-.820517.120583-1.639882.184063-2.464844.205078-.125409-.000577-.297931.0032-.423828 0-.824962-.02091-1.642863-.08447-2.462891-.205078-.820027-.12061-1.642183-.29827-2.472656-.544922-1.251533-.371701-2.433823-.858557-3.539062-1.447266-.552382-.294173-1.084921-.614582-1.597657-.957031-5.127695-3.424525-8.221462-9.164019-8.25-15.242187-.0056-1.215626.111542-2.444962.359375-3.671875.123904-.613459.280323-1.225588.470703-1.835938.808148-2.566165 2.111605-4.841969 3.791016-6.748047.335922-.381181.685666-.746724 1.050781-1.097656.365032-.351015.744366-.686381 1.136719-1.005859l.001953-.001954c.392403-.31942.797006-.621606 1.214844-.908203-.876517-.453957-1.701564-.962599-2.494141-1.52539h-.001953c-.170916-.12135-.333891-.256357-.501953-.382813-.611921-.460431-1.212055-.943898-1.798828-1.472656zm15.185547 5.736328c-.257034.0074-.473628.021485-.513672.021484-.339151.02251-.677515.05691-1.011719.103516-3.341392.466463-6.40355 2.122017-8.542968 4.642578-.427966.504209-.819017 1.042364-1.167969 1.613282-.348953.570916-.656383 1.174177-.916016 1.80664-.129816.316232-.247963.640053-.353515.970703-.135729.42922-.246215.859708-.333985 1.291016-.08778.431314-.151987.862328-.193359 1.292969-.08291.861901-.074179 1.717981.019531 2.560546.0468.420993.114562.837985.203125 1.25.265722 1.236657.715922 2.425313 1.330078 3.53125.409231.73692.890998 1.436686 1.439453 2.087891.274228.325603.564381.639429.871094.939453.613369.600094 1.291348 1.145785 2.025391 1.626953 1.101124.721705 2.33018 1.297552 3.667968 1.689453.257311.075371.506192.126815.751954.16211.737185.105968 1.440473.06606 2.210937.08789.537647.05305.897223 0 1.269531 0 1.004257-.03238 1.956923.044871 2.962891-.25 1.782849-.522262 3.37465-1.371145 4.724609-2.457031l.001953-.001953c.03759-.03025.07021-.065093.107422-.095703.296318-.243869.5855-.495688.857422-.761719.307039-.300328.598573-.613487.873047-.939453 1.37099-1.628111 2.324749-3.557101 2.767578-5.617187.08867-.412625.158297-.830323.205078-1.251954.0468-.420995.070729-.844278.074219-1.271484.01048-1.281617-.176849-2.585342-.583984-3.873047-.21114-.6613-.471799-1.294142-.777344-1.896484-.305561-.602332-.655233-1.174691-1.044922-1.712891-2.337971-3.229304-6.098161-5.257387-10.167969-5.527344-.201587-.02958-.498825-.028884-.755859-.021484zm183.673833 2.792969c-.38219.0046-.78504.017177-1.19141.023437-.81231.01252-1.59753.07569-2.25781.22461-5.28798 1.19453-8.13083 5.252277-6.52149 9.177734.19381.472939.4549.924154.75195 1.34375.19511.272586.51675.592397.75196.896484.12146.12558.12095.328825.25195.447266.0694.0839.17901.142765.25.22461.43816.504868.78745.634986 1.25391.894531.45254.252051.99453.498821 1.50586.671875 1.89158.640519 4.02952.822151 5.76953 1.566406.47389.202857 1.19708.69892.75195 1.568359-.44512.869422-1.45612 1.428274-5.26758 1.119141-1.90029-.133627-3.47815-1.33017-4.76562-2.015625-.63546-.338113-1.0039-.224609-1.00391-.224609v5.597656c2.75746 1.869913 6.99176 2.544412 11.03711 2.015625 5.89906-.771571 8.02606-5.868001 6.77344-9.177735-.33102-.734183-.65154-1.643381-1.25391-2.240234-.60236-.596836-1.19419-1.124951-2.00781-1.566406-.66552-.446034-1.488-.665508-2.00586-.896484-.24957-.075851-.49454-.155825-.75195-.222657-.3258-.09069-.66547-.155291-1.00391-.224609-1.30533-.304088-2.40672-.646202-3.51172-1.119141-.47387-.202463-.94708-.249718-.50195-1.11914.44513-.869439 1.61357-1.59784 4.51562-1.34375 1.80752.157956 4.76563 1.791015 4.76563 1.791015l.25-5.597656c-1.605-1.15589-3.27756-1.61755-5.51758-1.791016-.32274-.02477-.68422-.028067-1.0664-.023437zm20.1289.023437c-4.93514.237158-6.12142 1.432324-8.02539 2.910157-1.90421 1.478064-2.59817 4.44119-3.00977 6.269531-.41158 1.828322-.36913 3.559449-.25195 4.925781.11701 1.366295.35582 2.436983 1.00391 3.806641.64853 1.369265 1.4895 2.403136 2.75781 3.357422 1.26833.954267 3.3638 1.88965 5.26758 2.238281 1.90422.348596 4.02189.239404 6.02148 0 1.9996-.239403 5.26758-1.566406 5.26758-1.566406l-.25195-5.373047s-2.51583 1.045705-4.01367 1.341797c-1.49787.29611-3.45901.382941-5.01563.224609-1.55621-.158315-2.27042-.735194-3.01172-1.566406-.74131-.831229-.79637-1.703734-1.00195-2.91211-.20644-1.207963-.5013-2.667238 0-4.251953.50131-1.584716 1.46747-3.093136 3.00977-3.582031 1.54226-.488466 4.59595-.290243 6.27148 0 1.67556.290225 3.76172 1.341797 3.76172 1.341797l.25195-5.373047s-4.09372-2.027252-9.0293-1.791016h-.00195zm-124.41797.22461v13.433594c-.26263 7.10791 3.19532 10.294606 10.28516 10.298828 7.16388.0036 10.96983-3.592448 10.53515-10.298828V62.277344h-3.26171v11.417968c-.36716 5.604681-.52813 9.354474-7.27344 9.402344-6.74489.04866-7.02344-4.181123-7.02344-9.402344V62.277344h-3.26172zm21.82422 0v23.283203h16.05274V82.875H186.2793V62.277344h-3.25977zm8.5293 0V65.1875h8.77929v20.373047h3.51172V65.1875h8.52735v-2.910156h-20.81836zm21.32031 0v23.283203h3.51172v-8.955078h6.02148l6.26954 8.955078h3.26171l.50196-.222656-6.77344-9.404297c3.27008-.767368 5.76953-3.352541 5.76953-6.492188v-.447265c0-3.762062-3.56015-6.716797-7.77539-6.716797h-10.78711zm19.56641 23.060547v.222656h3.51172l3.26171-7.164063h10.03321l3.25976 7.164063h3.51367l-10.03515-23.283203h-3.25977l-10.28515 23.060547zm63.46289-23.060547v23.283203h7.02344v-8.955078h7.52539v8.955078h6.77343V62.277344h-6.77343v8.955078h-7.52539v-8.955078h-7.02344zm31.35547 0l-9.78125 23.283203h7.27343l2.00782-5.373047h7.77539l2.00781 5.373047h7.27344l-10.03321-23.283203h-6.52343zm16.80664 0v23.283203h17.55859v-5.597656h-11.03711V62.277344h-6.52148zm18.5625 0v23.283203h17.55859v-5.597656h-11.03711V62.277344h-6.52148zM216.13086 65.1875h7.02344c2.74046 0 5.01758 1.709145 5.01758 4.029297v.224609c0 2.029926-1.74186 3.62734-4.01368 4.029297h-8.02734V65.1875zm28.09375 1.566406l3.76367 8.732422h-7.52539l3.76172-8.732422zm86.29101 2.240235l2.25782 6.267578h-4.51563l2.25781-6.267578z"/>
</svg>
