<svg xmlns:svg="http://www.w3.org/2000/svg" width="100%" viewBox="0 0 400 116">
  <path d="M 57.455078 15.453125 C 54.357079 16.701908 51.366752 18.178334 48.513672 19.867188 C 46.611562 20.99305 44.769946 22.212756 43 23.523438 C 41.230093 24.834159 39.531238 26.235729 37.912109 27.722656 C 37.102181 28.466426 36.313623 29.231333 35.544922 30.017578 C 34.776889 30.80314 34.029238 31.608659 33.304688 32.435547 C 31.854619 34.090389 30.494364 35.826736 29.232422 37.640625 C 27.970754 39.45412 26.80694 41.344736 25.751953 43.308594 C 24.169473 46.25438 22.830666 49.365126 21.765625 52.625 L 21.765625 52.75 C 20.531126 56.565187 19.631448 60.440972 19.226562 64.263672 C 19.500283 64.965416 20.222675 66.264819 20.851562 66.921875 C 20.977685 67.053724 21.098606 67.160285 21.212891 67.230469 C 21.44087 67.370517 21.636787 67.367276 21.765625 67.142578 C 21.960475 65.216905 22.263762 63.330776 22.666016 61.445312 C 23.068326 59.559984 23.569715 57.675588 24.164062 55.753906 L 24.164062 55.628906 C 28.583592 41.474056 37.860065 29.976152 49.636719 22.552734 C 50.54265 21.981701 51.463985 21.434289 52.398438 20.912109 C 54.267362 19.867755 56.191994 18.923244 58.162109 18.082031 C 58.202649 17.994621 58.232133 17.893188 58.251953 17.783203 C 58.331233 17.343265 58.251017 16.754083 58.058594 16.267578 C 57.962384 16.024326 57.837584 15.806976 57.691406 15.646484 C 57.618316 15.566234 57.540366 15.500881 57.457031 15.453125 L 57.455078 15.453125 z M 106.40625 15.453125 C 105.73903 15.834197 105.37686 17.382576 105.70117 18.082031 C 121.46209 24.811728 134.25788 38.206874 139.69727 55.628906 L 139.69727 55.753906 C 140.88597 59.597269 141.70601 63.291466 142.0957 67.142578 C 142.61107 68.041138 144.19707 65.386462 144.63477 64.263672 C 144.23012 60.440972 143.32996 56.565186 142.0957 52.75 L 142.0957 52.625 C 136.41506 35.238655 122.92966 22.113089 106.40625 15.453125 z M 57.457031 30.847656 C 56.153582 31.585089 54.881542 32.380422 53.648438 33.232422 C 53.032311 33.658145 52.424934 34.09923 51.828125 34.552734 C 51.230925 35.006554 50.643077 35.473987 50.066406 35.955078 C 43.146474 41.728132 37.746553 49.446014 34.884766 58.632812 L 34.884766 58.882812 C 34.394595 60.471423 34.00164 62.060419 33.699219 63.648438 C 33.497605 64.707116 33.336036 65.766304 33.212891 66.822266 C 32.966601 68.934189 32.874265 71.037679 32.917969 73.126953 C 32.950749 74.693909 33.060006 76.252343 33.240234 77.798828 C 33.480536 79.860808 33.84574 81.90222 34.320312 83.914062 C 35.695653 85.313677 37.085564 86.139747 38.695312 87.417969 C 38.700812 87.329189 38.714332 87.252152 38.732422 87.185547 C 38.750342 87.119597 38.772898 87.063745 38.798828 87.013672 C 38.798828 87.013672 38.798828 87.011719 38.798828 87.011719 C 38.851028 86.911368 38.916214 86.837547 38.974609 86.765625 C 38.974609 86.765625 38.974609 86.763672 38.974609 86.763672 C 39.062369 86.65583 39.137775 86.553513 39.140625 86.375 L 39.140625 86.373047 C 39.141541 86.313287 39.134528 86.24567 39.117188 86.166016 C 38.978305 85.528784 38.685047 84.549591 37.566406 80.410156 C 37.305619 79.445135 37.077005 78.269848 36.902344 76.955078 C 36.889624 76.859328 36.871455 76.779018 36.859375 76.681641 C 36.851975 76.621951 36.848957 76.552481 36.841797 76.492188 C 36.677182 75.104701 36.575471 73.567683 36.580078 71.90625 C 36.582478 71.039089 36.612531 70.140669 36.675781 69.216797 C 36.739031 68.292925 36.834537 67.343294 36.96875 66.375 C 37.03586 65.890853 37.112475 65.401152 37.199219 64.908203 C 37.372706 63.922306 37.588035 62.922043 37.847656 61.910156 C 37.977467 61.404213 38.118243 60.894902 38.271484 60.384766 L 38.271484 60.134766 C 38.689714 58.755724 39.166892 57.417322 39.701172 56.119141 C 40.234996 54.822068 40.825277 53.564539 41.466797 52.349609 C 43.392401 48.70284 45.784247 45.429917 48.533203 42.548828 C 48.991312 42.068686 49.460098 41.600834 49.9375 41.142578 C 52.324436 38.851302 54.945504 36.834322 57.738281 35.103516 C 58.01572 34.808351 58.005669 33.154903 57.886719 31.955078 C 57.886719 31.955078 57.886719 31.953125 57.886719 31.953125 C 57.847009 31.553134 57.795839 31.204575 57.738281 30.972656 C 57.705941 30.843283 57.457031 30.847656 57.457031 30.847656 z M 106.40625 30.847656 C 106.40625 30.847656 106.34364 30.846258 106.27734 30.861328 C 106.21084 30.876478 106.14105 30.907868 106.125 30.972656 C 106.00988 31.436494 105.91785 32.370948 105.90039 33.238281 C 105.88789 33.85719 105.917 34.431277 106 34.787109 C 106.004 34.805269 106.00477 34.832669 106.00977 34.849609 C 106.04097 34.9667 106.07857 35.054079 106.125 35.103516 C 108.35923 36.488161 110.48412 38.056011 112.4668 39.800781 C 112.96246 40.236973 113.4484 40.684323 113.92578 41.142578 C 114.40317 41.600833 114.87199 42.07064 115.33008 42.550781 C 115.78784 43.030591 116.23636 43.519998 116.67383 44.021484 C 118.86309 46.531015 120.79175 49.310547 122.39648 52.349609 C 122.71739 52.957334 123.02389 53.574758 123.31836 54.203125 C 123.31836 54.203125 123.31836 54.205078 123.31836 54.205078 C 123.61256 54.832926 123.89532 55.470863 124.16211 56.119141 C 124.16211 56.119141 124.16211 56.121094 124.16211 56.121094 C 124.42888 56.769384 124.68158 57.427162 124.91992 58.095703 C 125.15868 58.76538 125.38258 59.444945 125.5918 60.134766 L 125.5918 60.384766 C 125.74506 60.894917 125.8858 61.40225 126.01562 61.908203 C 126.01562 61.908203 126.01562 61.910156 126.01562 61.910156 C 126.14526 62.415483 126.26356 62.918362 126.37109 63.417969 C 127.23266 67.420422 127.40627 71.213154 127.21289 74.40625 C 127.16459 75.204391 127.09285 75.964785 127.00391 76.681641 C 127.00391 76.681641 127.00391 76.683594 127.00391 76.683594 C 126.99191 76.780264 126.97364 76.860017 126.96094 76.955078 C 126.78626 78.269832 126.55766 79.445135 126.29688 80.410156 C 125.17824 84.549591 124.88522 85.528784 124.74609 86.166016 C 124.72869 86.245666 124.72166 86.313287 124.72266 86.373047 C 124.72266 86.373047 124.72266 86.375 124.72266 86.375 C 124.72566 86.553513 124.80086 86.65583 124.88867 86.763672 C 124.88867 86.763672 124.88867 86.765625 124.88867 86.765625 C 124.94707 86.837545 125.01224 86.911368 125.06445 87.011719 C 125.07475 87.031379 125.08054 87.058228 125.08984 87.080078 C 125.10414 87.114168 125.11986 87.145038 125.13086 87.185547 C 125.14896 87.252147 125.16247 87.329188 125.16797 87.417969 C 126.37483 86.459487 127.45765 85.755202 128.50391 84.873047 C 128.85261 84.578801 129.19908 84.263907 129.54297 83.914062 C 130.01748 81.90222 130.38276 79.860808 130.62305 77.798828 C 130.80327 76.252343 130.91252 74.693909 130.94531 73.126953 C 130.96721 72.082316 130.95535 71.033703 130.90625 69.982422 C 130.80895 67.879859 130.56727 65.765794 130.16406 63.648438 C 129.86165 62.060418 129.46869 60.471421 128.97852 58.882812 L 128.97852 58.632812 C 126.11673 49.446015 120.71684 41.728165 113.79688 35.955078 C 113.79688 35.955078 113.79492 35.955078 113.79492 35.955078 C 112.6419 34.993218 111.44754 34.084184 110.21484 33.232422 C 110.21484 33.232422 110.21289 33.232422 110.21289 33.232422 C 109.59676 32.80672 108.97217 32.395424 108.33789 31.998047 C 108.33789 31.998047 108.33594 31.998047 108.33594 31.998047 C 107.70119 31.600402 107.05799 31.216387 106.40625 30.847656 z M 282.10938 33.287109 C 282.10938 33.287109 279.53651 33.301409 279.13672 33.318359 C 278.73693 33.335309 278.63005 33.325259 278.30469 33.449219 C 277.97971 33.573244 277.38733 34.008044 277.00195 34.478516 C 276.61657 34.948988 276.47854 35.570065 276.35742 36.005859 C 276.23626 36.441653 276.26367 36.888672 276.26367 36.888672 L 276.25391 39.298828 L 273.77344 39.310547 L 273.70898 41.324219 L 276.26562 41.310547 L 276.25391 52.384766 L 278.2793 52.371094 L 278.29102 41.335938 L 282.26367 41.335938 L 282.27734 39.310547 L 278.2793 39.310547 C 278.2793 39.310547 278.27032 37.968738 278.29102 37.390625 C 278.31252 36.804967 278.38041 36.262287 278.60742 35.916016 C 278.83449 35.569745 279.16647 35.455022 279.37695 35.367188 C 279.58743 35.279348 279.95898 35.287109 279.95898 35.287109 L 282.25195 35.287109 L 282.29102 33.292969 L 282.10938 33.287109 z M 338.28711 34.294922 C 338.27811 34.95938 338.27344 40.179687 338.27344 40.179688 C 337.69411 39.643746 336.03169 38.743332 334.69727 38.744141 C 334.49832 38.744499 334.29949 38.75688 334.10156 38.78125 C 330.82837 39.180051 328.44079 42.705498 328.76562 46.660156 C 329.09028 50.615007 332.00492 53.505168 335.2793 53.119141 C 338.55419 52.733401 339.83766 50.265567 339.86328 49.251953 L 339.86133 34.300781 C 339.32685 34.271911 338.96582 34.285512 338.28711 34.294922 z M 352.44336 34.294922 C 351.76465 34.285422 351.40167 34.271871 350.86719 34.300781 L 350.86523 49.251953 C 350.89083 50.265567 352.17632 52.733401 355.45117 53.119141 C 358.72556 53.505168 361.64019 50.615007 361.96484 46.660156 C 362.28968 42.705498 359.9021 39.180051 356.62891 38.78125 C 356.43098 38.75688 356.23215 38.744501 356.0332 38.744141 C 354.69878 38.743332 353.03636 39.643746 352.45703 40.179688 C 352.45703 40.179687 352.45206 34.95938 352.44336 34.294922 z M 303.25391 38.365234 C 303.25391 38.365234 299.66073 38.506682 297.93945 39.236328 C 297.56799 39.393789 297.03265 39.64755 296.6875 39.925781 C 296.54421 40.041287 296.39195 40.273981 296.34375 40.363281 C 296.18308 40.660789 296.23633 41.371094 296.23633 41.371094 L 296.26172 52.433594 L 298.3418 52.433594 L 298.3418 42.021484 C 298.3418 42.021484 298.32204 41.618327 298.36914 41.46875 C 298.41624 41.319173 298.46955 41.251049 298.53125 41.167969 C 298.76758 40.849722 299.73261 40.605464 300.46875 40.439453 C 301.39232 40.231174 303.24609 40.152344 303.24609 40.152344 L 303.25391 38.365234 z M 288.33984 38.601562 A 6.4306323 7.004771 0 0 0 287.69922 38.634766 A 6.4306323 7.004771 0 0 0 281.94336 46.296875 A 6.4306323 7.004771 0 0 0 288.9668 52.576172 A 6.4306323 7.004771 0 0 0 294.74414 44.935547 L 294.74023 44.890625 A 6.4306323 7.004771 0 0 0 288.33984 38.601562 z M 321.75391 38.740234 C 321.556 38.730834 321.35459 38.731188 321.15039 38.742188 C 317.88328 38.917578 315.59428 41.496479 315.70508 45.066406 C 315.84161 49.464924 317.36709 50.948517 318.6582 51.734375 C 319.24253 52.090035 320.45735 52.53294 321.54688 52.554688 C 322.89371 52.581567 323.98035 52.317922 324.34961 52.185547 C 325.94815 51.599992 326.13707 51.53403 326.29492 51.189453 C 326.52393 50.689418 326.26172 49.46875 326.26172 49.46875 C 326.26172 49.46875 325.04136 50.163512 324.07812 50.46875 C 322.43099 50.990711 321.03241 50.678176 320.45898 50.484375 C 318.29989 49.754641 317.69318 47.030584 317.62109 46.857422 C 317.62109 46.857422 319.16123 46.841541 322.02539 46.837891 C 323.67989 46.835791 327.30273 46.810547 327.30273 46.810547 C 327.28823 46.082966 327.25974 45.173871 327.08008 43.335938 C 326.94146 41.225243 324.7226 38.880507 321.75391 38.740234 z M 308.82422 38.878906 C 308.62525 38.879527 308.42644 38.891253 308.22852 38.914062 C 304.94884 39.283324 302.55603 42.552676 302.88086 46.220703 C 303.20645 49.888088 306.12601 52.568204 309.40625 52.210938 C 310.11202 52.133828 311.09554 51.936382 311.76758 51.666016 C 311.92805 51.601456 312.29102 51.398431 312.29102 51.398438 C 312.29302 51.24241 312.29119 50.968803 312.29102 50.609375 C 312.29302 50.855778 312.29592 51.082663 312.29492 51.404297 C 312.29292 51.941261 312.30726 52.788043 312.28906 53.351562 C 312.28906 53.351562 312.09178 54.205488 311.83203 54.5625 C 311.57227 54.919512 310.81836 55.414062 310.81836 55.414062 C 310.81836 55.414062 308.79958 55.533323 307.79688 55.544922 C 306.61539 55.558592 304.29297 55.441406 304.29297 55.441406 L 304.30273 57.273438 C 304.30273 57.273438 306.68745 57.334924 307.88477 57.333984 C 308.67041 57.333362 309.98591 57.259484 310.75 57.181641 C 311.11212 57.144751 311.15953 57.136681 311.34961 57.070312 C 311.51804 57.011502 311.53935 56.960417 311.80078 56.783203 C 312.17554 56.529165 312.6969 56.136507 313.01172 55.728516 C 313.48298 55.117796 313.74805 53.484375 313.74805 53.484375 L 313.71289 41.845703 C 313.62649 41.441322 312.73889 40.318473 311.58789 39.664062 C 310.58854 39.095875 309.28834 38.879598 308.82422 38.878906 z M 364.14453 39.308594 L 361.95703 39.339844 C 361.95703 39.339843 363.70865 43.485297 364.60938 45.484375 C 365.45713 47.365855 367.06445 50.818359 367.06445 50.818359 C 367.06445 50.818359 367.34848 51.285324 367.33008 51.712891 C 367.30118 52.384327 366.9658 53.112946 366.72266 53.560547 C 366.37157 54.206889 365.84961 54.974609 365.84961 54.974609 C 365.84961 54.974609 365.50954 55.245218 365.29297 55.335938 C 365.20107 55.374448 364.30859 55.505859 364.30859 55.505859 L 363.26562 55.603516 C 363.26562 55.603516 363.00501 55.599411 362.94141 55.681641 C 362.8042 55.85909 362.91577 56.180957 362.98438 56.511719 C 363.02708 56.717312 363.04838 56.853808 363.14062 57.042969 C 363.20033 57.165197 363.22763 57.195186 363.27539 57.228516 C 363.38152 57.302466 363.41443 57.302781 363.64648 57.300781 C 364.20224 57.295881 365.48149 57.16548 365.81445 57.03125 C 366.5143 56.74911 367.18925 56.329511 367.68945 55.578125 C 368.62661 54.170376 368.97213 53.21603 370.04102 50.570312 C 371.10992 47.924596 374.31445 39.308594 374.31445 39.308594 L 372.30273 39.398438 L 368.50781 49.380859 C 368.50781 49.380859 366.9125 46.15754 366.25586 44.523438 C 365.59922 42.889334 364.14453 39.308594 364.14453 39.308594 z M 334.77734 40.302734 C 336.16776 40.302004 337.27158 41.132153 338.27539 42.244141 C 338.27539 42.244141 338.28906 44.070193 338.31836 45.412109 C 338.34766 46.754025 338.32031 49.460938 338.32031 49.460938 C 337.57094 50.547688 337.1821 51.419477 335.22656 51.630859 C 333.01269 51.707249 330.56779 49.499538 330.31641 46.435547 C 330.06586 43.371627 331.78542 40.640748 334.31641 40.332031 C 334.46956 40.312961 334.62339 40.303184 334.77734 40.302734 z M 355.95312 40.302734 C 356.10708 40.303184 356.26091 40.312961 356.41406 40.332031 C 358.94505 40.640748 360.66461 43.371627 360.41406 46.435547 C 360.16268 49.499538 357.71778 51.707249 355.50391 51.630859 C 353.54837 51.419477 353.15953 50.547687 352.41016 49.460938 C 352.41016 49.460938 352.38271 46.754025 352.41211 45.412109 C 352.44141 44.070193 352.45508 42.244141 352.45508 42.244141 C 353.45889 41.132153 354.5627 40.302004 355.95312 40.302734 z M 321.22461 40.416016 C 323.75968 40.271828 325.54183 41.991734 325.54688 45.234375 C 325.54688 45.234375 324.85691 45.246178 321.8418 45.210938 C 319.52657 45.183878 317.625 45.220703 317.625 45.220703 C 317.43109 42.597865 318.68954 40.560205 321.22461 40.416016 z M 288.32227 40.417969 A 4.6733119 5.127802 0 0 1 292.97266 45.025391 L 292.97461 45.056641 A 4.6733119 5.127802 0 0 1 288.7793 50.650391 A 4.6733119 5.127802 0 0 1 283.67383 46.052734 A 4.6733119 5.127802 0 0 1 287.85547 40.443359 A 4.6733119 5.127802 0 0 1 288.32227 40.417969 z M 308.85352 40.585938 C 309.31611 40.586621 310.18086 40.663198 310.77148 40.939453 C 311.46111 41.262018 311.87177 41.813834 312.29883 42.1875 L 312.29688 49.564453 L 312.29297 49.703125 C 312.29289 49.705325 312.29305 49.706684 312.29297 49.708984 C 312.29297 49.708984 309.96579 50.300393 309.11914 50.394531 C 306.6297 50.668924 304.82728 48.55962 304.75781 45.712891 C 304.68831 42.866162 305.9148 40.896458 308.40234 40.613281 C 308.55223 40.595701 308.70282 40.586567 308.85352 40.585938 z M 59.289062 44.365234 C 58.217878 45.184655 57.20771 46.045693 56.257812 46.953125 C 55.940821 47.255939 55.631648 47.563785 55.328125 47.876953 C 55.182006 48.027716 55.041438 48.182727 54.898438 48.335938 C 54.448009 48.818494 54.009371 49.308939 53.589844 49.816406 C 53.037116 50.484995 52.510933 51.176858 52.011719 51.890625 C 51.013291 53.318159 50.121162 54.837512 49.335938 56.458984 C 49.139617 56.864359 48.950615 57.275176 48.767578 57.693359 C 48.584297 58.112066 48.408265 58.536924 48.238281 58.96875 C 48.068511 59.400017 47.904569 59.836623 47.748047 60.28125 C 47.591308 60.726437 47.442305 61.17786 47.298828 61.636719 L 47.298828 61.761719 C 43.997585 72.422577 46.001963 83.413524 51.835938 92.015625 C 52.284694 92.677322 52.756595 93.324854 53.25 93.957031 C 54.237092 95.221847 55.311027 96.424851 56.46875 97.556641 L 69.164062 101.31055 L 69.587891 100.56055 C 68.656444 100.18314 67.755774 99.765503 66.884766 99.310547 C 66.884766 99.310547 66.882812 99.310547 66.882812 99.310547 C 65.576343 98.628104 64.338929 97.861609 63.173828 97.021484 C 62.3971 96.461413 61.652867 95.868767 60.941406 95.246094 C 59.162324 93.689011 57.59202 91.945588 56.242188 90.0625 C 55.972268 89.685993 55.711016 89.305267 55.458984 88.917969 C 54.954589 88.142861 54.487948 87.347039 54.056641 86.533203 C 53.841106 86.126564 53.634424 85.715969 53.4375 85.300781 C 53.043641 84.470384 52.687107 83.623779 52.369141 82.763672 C 52.051185 81.903586 51.771381 81.030301 51.53125 80.146484 C 51.411012 79.70395 51.301536 79.259858 51.201172 78.8125 C 51.100925 78.365781 51.009874 77.91758 50.929688 77.466797 C 50.769425 76.565867 50.649001 75.656827 50.570312 74.744141 C 50.570312 74.744141 50.570312 74.742188 50.570312 74.742188 C 50.531022 74.286165 50.502945 73.828932 50.484375 73.371094 C 50.484375 73.371094 50.484375 73.369141 50.484375 73.369141 C 50.465815 72.910651 50.456514 72.45175 50.458984 71.992188 C 50.468884 70.153933 50.647971 68.309907 51.003906 66.484375 C 51.181872 65.571604 51.404492 64.664287 51.671875 63.763672 C 52.731119 60.265929 54.118074 57.542601 55.798828 55.177734 C 57.059436 53.404246 58.486228 51.832125 60.0625 50.287109 C 60.587918 49.772081 61.129159 49.259721 61.6875 48.744141 C 61.6941 48.621167 61.679001 48.463593 61.644531 48.28125 C 61.609941 48.098253 61.555541 47.892006 61.486328 47.669922 C 61.348561 47.227574 61.14946 46.728351 60.914062 46.253906 C 60.678692 45.779283 60.408621 45.330653 60.128906 44.988281 C 59.91912 44.731502 59.704602 44.535068 59.496094 44.433594 C 59.496094 44.433594 59.494141 44.433594 59.494141 44.433594 C 59.424641 44.399784 59.356757 44.376664 59.289062 44.365234 z M 104.57227 44.365234 C 104.50457 44.376684 104.43669 44.399764 104.36719 44.433594 C 104.29739 44.467584 104.22706 44.512414 104.15625 44.566406 C 104.08595 44.620026 104.01576 44.70656 103.94531 44.777344 C 103.87481 44.848024 103.80415 44.902979 103.73438 44.988281 C 103.59417 45.159677 103.45664 45.357332 103.32422 45.572266 C 103.19212 45.786787 103.06496 46.016602 102.94727 46.253906 C 102.71187 46.728336 102.51277 47.227592 102.375 47.669922 C 102.375 47.669922 102.375 47.671875 102.375 47.671875 C 102.23763 48.113372 102.16069 48.498561 102.17383 48.744141 C 102.73217 49.259751 103.27341 49.772065 103.79883 50.287109 C 104.32425 50.802154 104.83476 51.3202 105.32617 51.847656 C 108.27469 55.012394 110.60059 58.517058 112.18945 63.763672 C 112.9916 66.465519 113.38743 69.234766 113.40234 71.992188 C 113.40734 72.881901 113.37044 73.771868 113.29688 74.65625 C 113.29488 74.68485 113.29402 74.713597 113.29102 74.742188 C 113.21242 75.656194 113.09208 76.564573 112.93164 77.466797 C 112.85144 77.91758 112.76236 78.365781 112.66211 78.8125 C 112.66211 78.8125 112.66211 78.814453 112.66211 78.814453 C 112.64231 78.902843 112.6163 78.989915 112.5957 79.078125 C 112.408 79.881491 112.19299 80.678553 111.94141 81.464844 C 111.52256 82.773924 111.01648 84.055185 110.42578 85.300781 C 110.22886 85.715969 110.02218 86.126564 109.80664 86.533203 C 109.3754 87.347039 108.90863 88.142861 108.4043 88.917969 C 108.15227 89.305267 107.89101 89.685993 107.62109 90.0625 C 107.3509 90.439467 107.07304 90.81038 106.78516 91.175781 C 106.21003 91.905717 105.59934 92.611721 104.95508 93.291016 C 104.63297 93.630672 104.30193 93.96319 103.96289 94.289062 C 103.62384 94.614929 103.27565 94.934757 102.91992 95.246094 C 102.20884 95.868428 101.46572 96.461682 100.68945 97.021484 C 99.523973 97.86195 98.285519 98.627865 96.978516 99.310547 C 96.107496 99.765503 95.206853 100.18314 94.275391 100.56055 L 94.697266 101.31055 L 107.39453 97.556641 C 108.55229 96.424851 109.62622 95.221841 110.61328 93.957031 C 111.1067 93.324857 111.57857 92.677318 112.02734 92.015625 C 116.96348 84.736968 119.15678 75.747825 117.71484 66.695312 C 117.4527 65.049407 117.07042 63.40188 116.5625 61.761719 L 116.5625 61.636719 C 116.41903 61.17786 116.27002 60.726437 116.11328 60.28125 C 115.64372 58.947375 115.11435 57.675092 114.52539 56.458984 C 114.13276 55.648246 113.71346 54.862715 113.26758 54.101562 C 112.82171 53.34041 112.34886 52.604395 111.84961 51.890625 C 111.60001 51.533741 111.34501 51.181389 111.08203 50.835938 C 110.55605 50.145032 110.0034 49.476907 109.42383 48.830078 C 108.55484 47.860191 107.62464 46.937529 106.63477 46.060547 C 106.63477 46.060547 106.63281 46.060547 106.63281 46.060547 C 105.97262 45.475701 105.28639 44.911515 104.57227 44.365234 z M 66.625 53.5 C 65.714856 54.225112 64.851566 55.02043 64.042969 55.878906 C 63.639172 56.307612 63.247391 56.751363 62.873047 57.210938 C 62.873047 57.210938 62.873047 57.212891 62.873047 57.212891 C 62.498747 57.672471 62.138972 58.145912 61.796875 58.634766 C 61.796875 58.634766 61.796875 58.636719 61.796875 58.636719 C 61.454823 59.125579 61.129365 59.627993 60.822266 60.144531 C 60.822266 60.144531 60.822266 60.146484 60.822266 60.146484 C 60.207866 61.180067 59.664966 62.267513 59.207031 63.402344 C 58.977956 63.970028 58.769771 64.549998 58.583984 65.140625 L 58.583984 65.265625 C 58.358162 65.990499 58.172297 66.718024 58.017578 67.445312 C 58.001658 67.520162 57.981977 67.595066 57.966797 67.669922 C 57.478238 70.078678 57.374365 72.486952 57.617188 74.830078 C 57.738568 76.001341 57.945512 77.155603 58.236328 78.285156 C 58.817962 80.544262 59.729418 82.70427 60.935547 84.695312 C 61.33755 85.359014 61.772148 86.003036 62.238281 86.626953 C 62.937539 87.562801 63.70877 88.450925 64.544922 89.283203 C 64.823939 89.560985 65.108738 89.832663 65.402344 90.097656 C 65.695598 90.362333 65.995254 90.6198 66.302734 90.871094 C 66.302734 90.871094 66.304688 90.871094 66.304688 90.871094 C 66.611789 91.122046 66.925131 91.368489 67.246094 91.605469 C 67.246094 91.605469 67.248047 91.605469 67.248047 91.605469 C 67.569014 91.84242 67.895969 92.072565 68.230469 92.294922 C 68.900794 92.740553 69.597621 93.15579 70.320312 93.539062 C 70.681409 93.730576 71.048196 93.912885 71.421875 94.087891 C 72.54341 94.613218 73.72027 95.06236 74.949219 95.427734 C 76.632512 95.928202 78.340959 96.220877 80.033203 96.351562 C 80.033203 96.351562 80.035156 96.351562 80.035156 96.351562 C 80.598581 96.395032 81.160564 96.420298 81.71875 96.429688 C 81.844398 96.431687 82.01693 96.429117 82.142578 96.429688 C 84.378155 96.392088 86.669671 96.094784 88.914062 95.427734 C 91.370801 94.697286 93.621227 93.630822 95.630859 92.294922 C 96.30075 91.84961 96.943634 91.373684 97.558594 90.871094 C 97.866066 90.619806 98.167692 90.362326 98.460938 90.097656 C 98.754548 89.832662 99.039349 89.560985 99.318359 89.283203 C 104.05611 84.566954 106.66663 78.053268 106.34375 71.275391 C 106.30575 70.477983 106.22792 69.677196 106.10742 68.875 C 106.04712 68.473287 105.97607 68.071896 105.89453 67.669922 C 105.81313 67.268564 105.72197 66.86779 105.61914 66.466797 C 105.51631 66.065805 105.40195 65.665628 105.27734 65.265625 L 105.27734 65.140625 C 104.72024 63.369518 103.96255 61.696872 103.04102 60.146484 C 103.04102 60.146484 103.03906 60.144531 103.03906 60.144531 C 102.93054 59.96201 102.8083 59.790457 102.69531 59.611328 C 102.48835 59.283338 102.28584 58.951042 102.06445 58.634766 C 101.72235 58.145919 101.36258 57.672461 100.98828 57.212891 C 100.98828 57.212891 100.98828 57.210938 100.98828 57.210938 C 100.61421 56.751705 100.22379 56.307314 99.820312 55.878906 C 99.820312 55.878906 99.818359 55.876953 99.818359 55.876953 C 99.010049 55.018903 98.146101 54.224812 97.236328 53.5 C 96.488529 54.173862 95.728076 54.792301 94.935547 55.355469 C 94.143018 55.918636 93.318414 56.426531 92.441406 56.880859 C 93.27702 57.453994 94.062934 58.093087 94.792969 58.794922 C 96.983074 60.900427 98.664976 63.563004 99.634766 66.642578 C 100.0155 67.863249 100.26184 69.093142 100.38086 70.318359 C 100.38086 70.318359 100.38086 70.320312 100.38086 70.320312 C 100.67802 73.38269 100.18281 76.411286 99.025391 79.15625 C 98.562331 80.254469 97.993198 81.306755 97.326172 82.298828 C 96.992659 82.794865 96.635317 83.276664 96.253906 83.740234 C 95.872496 84.203805 95.466308 84.649021 95.039062 85.076172 C 92.902837 87.211925 90.207508 88.868113 87.080078 89.796875 C 86.24961 90.043528 85.427939 90.221214 84.607422 90.341797 C 83.786905 90.46238 82.96754 90.52586 82.142578 90.546875 C 82.017169 90.546298 81.844647 90.550075 81.71875 90.546875 C 80.893788 90.525965 80.075887 90.462405 79.255859 90.341797 C 78.435832 90.221187 77.613676 90.043527 76.783203 89.796875 C 75.53167 89.425174 74.34938 88.938318 73.244141 88.349609 C 72.691759 88.055436 72.15922 87.735027 71.646484 87.392578 C 66.518789 83.968053 63.425022 78.228559 63.396484 72.150391 C 63.390884 70.934765 63.508026 69.705429 63.755859 68.478516 C 63.879763 67.865057 64.036182 67.252928 64.226562 66.642578 C 65.03471 64.076413 66.338167 61.800609 68.017578 59.894531 C 68.3535 59.51335 68.703244 59.147807 69.068359 58.796875 C 69.433391 58.44586 69.812725 58.110494 70.205078 57.791016 C 70.205078 57.791016 70.207031 57.789062 70.207031 57.789062 C 70.599434 57.469642 71.004037 57.167456 71.421875 56.880859 C 70.545358 56.426902 69.720311 55.91826 68.927734 55.355469 C 68.927734 55.355469 68.925781 55.355469 68.925781 55.355469 C 68.754865 55.234119 68.59189 55.099112 68.423828 54.972656 C 67.811907 54.512225 67.211773 54.028758 66.625 53.5 z M 81.810547 59.236328 C 81.553513 59.243728 81.336919 59.257813 81.296875 59.257812 C 80.957724 59.280322 80.61936 59.314722 80.285156 59.361328 C 76.943764 59.827791 73.881606 61.483345 71.742188 64.003906 C 71.314222 64.508115 70.923171 65.04627 70.574219 65.617188 C 70.225266 66.188104 69.917836 66.791365 69.658203 67.423828 C 69.528387 67.74006 69.41024 68.063881 69.304688 68.394531 C 69.168959 68.823751 69.058473 69.254239 68.970703 69.685547 C 68.882923 70.116861 68.818716 70.547875 68.777344 70.978516 C 68.694434 71.840417 68.703165 72.696497 68.796875 73.539062 C 68.843675 73.960055 68.911437 74.377047 69 74.789062 C 69.265722 76.025719 69.715922 77.214375 70.330078 78.320312 C 70.739309 79.057232 71.221076 79.756998 71.769531 80.408203 C 72.043759 80.733806 72.333912 81.047632 72.640625 81.347656 C 73.253994 81.94775 73.931973 82.493441 74.666016 82.974609 C 75.76714 83.696314 76.996196 84.272161 78.333984 84.664062 C 78.591295 84.739433 78.840176 84.790877 79.085938 84.826172 C 79.823123 84.93214 80.526411 84.892232 81.296875 84.914062 C 81.834522 84.967112 82.194098 84.914062 82.566406 84.914062 C 83.570663 84.881682 84.523329 84.958933 85.529297 84.664062 C 87.312146 84.1418 88.903947 83.292917 90.253906 82.207031 C 90.253906 82.207031 90.255859 82.205078 90.255859 82.205078 C 90.293449 82.174828 90.326069 82.139985 90.363281 82.109375 C 90.659599 81.865506 90.948781 81.613687 91.220703 81.347656 C 91.527742 81.047328 91.819276 80.734169 92.09375 80.408203 C 93.46474 78.780092 94.418499 76.851102 94.861328 74.791016 C 94.949998 74.378391 95.019625 73.960693 95.066406 73.539062 C 95.113206 73.118067 95.137135 72.694784 95.140625 72.267578 C 95.151105 70.985961 94.963776 69.682236 94.556641 68.394531 C 94.345501 67.733231 94.084842 67.100389 93.779297 66.498047 C 93.473736 65.895715 93.124064 65.323356 92.734375 64.785156 C 90.396404 61.555852 86.636214 59.527769 82.566406 59.257812 C 82.364819 59.228232 82.067581 59.228928 81.810547 59.236328 z M 265.48438 62.029297 C 265.10219 62.033897 264.69934 62.046474 264.29297 62.052734 C 263.48066 62.065254 262.69544 62.128424 262.03516 62.277344 C 256.74718 63.471874 253.90433 67.529621 255.51367 71.455078 C 255.70748 71.928017 255.96857 72.379232 256.26562 72.798828 C 256.46073 73.071414 256.78237 73.391225 257.01758 73.695312 C 257.13904 73.820892 257.13853 74.024137 257.26953 74.142578 C 257.33893 74.226478 257.44854 74.285343 257.51953 74.367188 C 257.95769 74.872056 258.30698 75.002174 258.77344 75.261719 C 259.22598 75.51377 259.76797 75.76054 260.2793 75.933594 C 262.17088 76.574113 264.30882 76.755745 266.04883 77.5 C 266.52272 77.702857 267.24591 78.19892 266.80078 79.068359 C 266.35566 79.937781 265.34466 80.496633 261.5332 80.1875 C 259.63291 80.053873 258.05505 78.85733 256.76758 78.171875 C 256.13212 77.833762 255.76368 77.947266 255.76367 77.947266 L 255.76367 83.544922 C 258.52113 85.414835 262.75543 86.089334 266.80078 85.560547 C 272.69984 84.788976 274.82684 79.692546 273.57422 76.382812 C 273.2432 75.648629 272.92268 74.739431 272.32031 74.142578 C 271.71795 73.545742 271.12612 73.017627 270.3125 72.576172 C 269.64698 72.130138 268.8245 71.910664 268.30664 71.679688 C 268.05707 71.603837 267.8121 71.523863 267.55469 71.457031 C 267.22889 71.366341 266.88922 71.30174 266.55078 71.232422 C 265.24545 70.928334 264.14406 70.58622 263.03906 70.113281 C 262.56519 69.910818 262.09198 69.863563 262.53711 68.994141 C 262.98224 68.124702 264.15068 67.396301 267.05273 67.650391 C 268.86025 67.808347 271.81836 69.441406 271.81836 69.441406 L 272.06836 63.84375 C 270.46336 62.68786 268.7908 62.2262 266.55078 62.052734 C 266.22804 62.027964 265.86656 62.024667 265.48438 62.029297 z M 285.61328 62.052734 C 280.67814 62.289892 279.49186 63.485058 277.58789 64.962891 C 275.68368 66.440955 274.98972 69.404081 274.57812 71.232422 C 274.16654 73.060744 274.20899 74.791871 274.32617 76.158203 C 274.44318 77.524498 274.68199 78.595186 275.33008 79.964844 C 275.97861 81.334109 276.81958 82.36798 278.08789 83.322266 C 279.35622 84.276533 281.45169 85.211916 283.35547 85.560547 C 285.25969 85.909143 287.37736 85.799951 289.37695 85.560547 C 291.37655 85.321144 294.64453 83.994141 294.64453 83.994141 L 294.39258 78.621094 C 294.39258 78.621094 291.87675 79.666799 290.37891 79.962891 C 288.88104 80.259001 286.9199 80.345832 285.36328 80.1875 C 283.80707 80.029185 283.09286 79.452306 282.35156 78.621094 C 281.61025 77.789865 281.55519 76.91736 281.34961 75.708984 C 281.14317 74.501021 280.84831 73.041746 281.34961 71.457031 C 281.85092 69.872315 282.81708 68.363895 284.35938 67.875 C 285.90164 67.386534 288.95533 67.584757 290.63086 67.875 C 292.30642 68.165225 294.39258 69.216797 294.39258 69.216797 L 294.64453 63.84375 C 294.64453 63.84375 290.55081 61.816498 285.61523 62.052734 L 285.61328 62.052734 z M 161.19531 62.277344 L 161.19531 75.710938 C 160.93268 82.818848 164.39063 86.005544 171.48047 86.009766 C 178.64435 86.013366 182.4503 82.417318 182.01562 75.710938 L 182.01562 62.277344 L 178.75391 62.277344 L 178.75391 73.695312 C 178.38675 79.299993 178.22578 83.049786 171.48047 83.097656 C 164.73558 83.146316 164.45703 78.916533 164.45703 73.695312 L 164.45703 62.277344 L 161.19531 62.277344 z M 183.01953 62.277344 L 183.01953 85.560547 L 199.07227 85.560547 L 199.07227 82.875 L 186.2793 82.875 L 186.2793 62.277344 L 183.01953 62.277344 z M 191.54883 62.277344 L 191.54883 65.1875 L 200.32812 65.1875 L 200.32812 85.560547 L 203.83984 85.560547 L 203.83984 65.1875 L 212.36719 65.1875 L 212.36719 62.277344 L 191.54883 62.277344 z M 212.86914 62.277344 L 212.86914 85.560547 L 216.38086 85.560547 L 216.38086 76.605469 L 222.40234 76.605469 L 228.67188 85.560547 L 231.93359 85.560547 L 232.43555 85.337891 L 225.66211 75.933594 C 228.93219 75.166226 231.43164 72.581053 231.43164 69.441406 L 231.43164 68.994141 C 231.43164 65.232079 227.87149 62.277344 223.65625 62.277344 L 212.86914 62.277344 z M 232.43555 85.337891 L 232.43555 85.560547 L 235.94727 85.560547 L 239.20898 78.396484 L 249.24219 78.396484 L 252.50195 85.560547 L 256.01562 85.560547 L 245.98047 62.277344 L 242.7207 62.277344 L 232.43555 85.337891 z M 295.89844 62.277344 L 295.89844 85.560547 L 302.92188 85.560547 L 302.92188 76.605469 L 310.44727 76.605469 L 310.44727 85.560547 L 317.2207 85.560547 L 317.2207 62.277344 L 310.44727 62.277344 L 310.44727 71.232422 L 302.92188 71.232422 L 302.92188 62.277344 L 295.89844 62.277344 z M 327.25391 62.277344 L 317.47266 85.560547 L 324.74609 85.560547 L 326.75391 80.1875 L 334.5293 80.1875 L 336.53711 85.560547 L 343.81055 85.560547 L 333.77734 62.277344 L 327.25586 62.277344 L 327.25391 62.277344 z M 344.06055 62.277344 L 344.06055 85.560547 L 361.61914 85.560547 L 361.61914 79.962891 L 350.58203 79.962891 L 350.58203 62.277344 L 344.06055 62.277344 z M 362.62305 62.277344 L 362.62305 85.560547 L 380.18164 85.560547 L 380.18164 79.962891 L 369.14453 79.962891 L 369.14453 62.277344 L 362.62305 62.277344 z M 216.13086 65.1875 L 223.1543 65.1875 C 225.89476 65.1875 228.17188 66.896645 228.17188 69.216797 L 228.17188 69.441406 C 228.17188 71.471332 226.43002 73.068746 224.1582 73.470703 L 216.13086 73.470703 L 216.13086 65.1875 z M 244.22461 66.753906 L 247.98828 75.486328 L 240.46289 75.486328 L 244.22461 66.753906 z M 330.51562 68.994141 L 332.77344 75.261719 L 328.25781 75.261719 L 330.51562 68.994141 z "/>
</svg>
