<svg xmlns="http://www.w3.org/2000/svg" viewBox="0 0 400 116"><rect width="400.32809" height="116.35553" y=".35513648" fill="#302e21" fill-rule="evenodd" rx="0"/><path fill="#fff" fill-rule="evenodd" d="M108.55273147 15.87890646v1.63086c20.0167501 8.706822 34.43578018 27.55041697 36.5058602 49.89843695.48422-.868663.94956-1.749882 1.39649-2.640625-2.98682002-22.0547539-17.7606501-40.4526579-37.9023502-48.8886719zm-49.62108926.00586c-20.3218091 8.517539-35.1772361 27.17670097-37.9687501 49.49999995.355234.690703.721499 1.37543 1.099609 2.052734 2.072587-22.4942759 16.6570931-41.4416369 36.8691412-50.0820309v-1.470703zm0 15.49413998c-14.566545 8.348638-24.3554691 23.85603998-24.3554691 41.60937496 0 4.171394.540723 8.218303 1.55664 12.078125 1.30791 1.18061198 2.659923 2.31513798 4.0566411 3.39648498-1.797895-4.848132-2.779297-10.079234-2.779297-15.53710998-.000192-16.14961998 8.5865591-30.33008197 21.5214851-38.38281196v-3.164063zm49.6210893.140625v3.111328c12.8563101 8.067639 21.3808601 22.20380398 21.3808601 38.29492196 0 5.360309-.95034 10.501236-2.6875 15.27539098 1.34309-1.052662 2.6464-2.153507 3.90625-3.298828.98862-3.810379 1.51368-7.80136 1.51368-11.91406298 0-17.65520198-9.68053-33.08784096-24.1132901-41.46874996zm173.5566509 1.767578s-2.57287.0143-2.97266.03125c-.39979.01695-.50667.0069-.83203.13086-.32498.124025-.91736.558825-1.30274 1.029297-.38538.470472-.52341 1.091549-.64453 1.527343-.12116.435794-.09375.882813-.09375.882813l-.00976 2.410156-2.48047.011719-.06446 2.013672 2.55664-.013672-.01171 11.07421898 2.02539-.013672.01172-11.035156h3.9726501l.01367-2.02539098h-3.99804s-.00898-1.341809.01172-1.919922c.0215-.585658.0894-1.128338.3164-1.474609.22707-.346271.55905-.460994.76953-.548828.21048-.08784.58203-.080079.58203-.080079h2.2929701l.03907-1.99414-.18164-.00586zm56.1777303 1.007813c-.009.664458-.01367 5.884765-.01367 5.884766-.57933-.535942-2.24175-1.436356-3.57617-1.435547-.19895.000358-.39778.012739-.59571.037109-3.27319.398801-5.66077 3.924248-5.33594 7.878906.32466 3.95485098 3.2393 6.84501198 6.5136801 6.45898498 3.27489-.38574 4.5583601-2.853574 4.5839801-3.867188l-.00195-14.95117198c-.53448-.02887-.89551-.015229-1.57422-.005859zm14.1562501 0c-.67871-.0095-1.04169-.023091-1.57617.005859l-.00196 14.951172c.0256 1.01361398 1.31109 3.48144798 4.58594 3.86718798 3.27439.386027 6.1890201-2.504134 6.5136701-6.458985.32484-3.954658-2.06274-7.48010498-5.33593-7.87890598-.19793-.02437-.39676-.036749-.59571-.037109-1.33442-.000809-2.99684.899605-3.57617 1.435547 0-.000001-.00497-5.220308-.01367-5.884766zm-49.1894502 4.070312s-3.59318.141448-5.31446.871094c-.37146.157461-.9068.411222-1.25195.689453-.14329.115506-.29555.3482-.34375.4375-.16067.297508-.10742 1.007813-.10742 1.007813l.02539 11.06249998h2.08008v-10.41211s-.01976-.403157.02734-.552734c.0471-.149577.10041-.217701.16211-.300781.23633-.318247 1.20136-.562505 1.9375-.728516.92357-.20827898 2.7773401-.28710898 2.7773401-.28710898l.00782-1.78711zm-14.9140701.236328c-.21391-.000545-.42772.010544-.64062.033204-3.53078.386666-6.10666 3.815646-5.75586 7.662109.35061 3.84486198 3.4931 6.65440098 7.02344 6.27929698 3.5309501-.37493 6.1161201-3.793857 5.7773401-7.640625l-.00391-.044922c-.33702-3.574134-3.10194-6.29096898-6.40039-6.28906298zm33.4140702.138672c-.19791-.0094-.39932-.009046-.60352.001954-3.26711.17539-5.55611 2.754291-5.44531 6.324218.13653 4.39851798 1.66201 5.88211098 2.95312 6.66796898.58433.35566 1.79914.798564 2.88868.820313 1.3468301.026879 2.4334701-.236766 2.8027301-.369141 1.59854-.585555 1.78746-.651517 1.94531-.996094.22901-.500035-.0332-1.720703-.0332-1.720703s-1.22035.694762-2.1836 1c-1.64713.521961-3.04571.209421-3.61914.015625-2.15909-.729734-2.7658-3.453791-2.83789-3.626953 0 0 1.54014-.015881 4.4043001-.019531 1.6545-.0021 5.27734-.027344 5.27734-.027344-.0145-.727581-.043-1.636677-.22265-3.474609-.13862-2.110695-2.35748-4.45543098-5.32617-4.59570398zm-12.92969.138672c-.19897.000621-.39778.012347-.5957.035156-3.27968.369262-5.67249 3.638614-5.34766 7.306641.32559 3.66738498 3.24515 6.34749998 6.5253901 5.99023498.70577-.07711 1.68929-.274556 2.36133-.544922.16047-.06456.52344-.267586.52344-.267578.002-.156028.00017-.429635 0-.789063.002.246403.0049.473288.0039.794922-.002.536964.01244 1.383746-.00586 1.947265 0 0-.19728.853926-.45703 1.210938-.25976.357012-1.01367.851562-1.01367.851562s-2.01879.119261-3.02148.13086c-1.18149.01367-3.50391-.103516-3.50391-.103516l.00976 1.832032s2.38472.061486 3.58204.060546c.78564-.000622 2.10114-.0745 2.8652301-.152343.36212-.03689.40953-.04496.59961-.111329.16843-.05881.18974-.109895.45117-.287109.37476-.254038.89612-.646696 1.21094-1.054687.47126-.61072.73633-2.244141.73633-2.244141l-.03516-11.638672c-.0864-.404381-.974-1.52723-2.125-2.18164098-.99935-.568187-2.29955-.784464-2.76367-.785156zm55.3203103.429688l-2.1875.03125c0-.000001 1.75161 4.145453 2.65235 6.144531.84775 1.88148 2.4550701 5.33398398 2.4550701 5.33398398s.28403.466965.26563.894532c-.0289.671436-.36428 1.400055-.60742 1.847656-.35109.646342-.87305 1.414062-.87305 1.414062s-.34007.270609-.55664.361329c-.0919.03851-.98438.169921-.98438.169921l-1.04297.097657s-.26061-.004105-.32421.078125c-.13721.177449-.02564.499316.04297.830078.0427.205593.064.342089.15624.53125.05971.122228.087.152217.13477.185547.10613.07395.13904.074265.37109.072265.55576-.0049 1.83501-.135301 2.16797-.269531.6998501-.28214 1.3748001-.701739 1.8750001-1.453125.93716-1.407749 1.28268-2.362095 2.35157-5.007813 1.0689-2.645716 4.2734301-11.26171798 4.2734301-11.26171798l-2.01172.089844-3.79492 9.98242098s-1.59531-3.22332-2.25195-4.857421c-.65664-1.634105-2.11133-5.21484398-2.11133-5.21484398zm-29.3671901.99414c1.39042-.00073 2.49424.829419 3.49805 1.941407 0 0 .01367 1.826052.04297 3.167968s.00195 4.04882898.00195 4.04882898c-.74937 1.08675-1.13821 1.958539-3.09375 2.169921-2.21387.07639-4.65877-2.131321-4.91015-5.195312-.25055-3.06392 1.46901-5.794799 4.0000001-6.103516.15315-.01907.30698-.028847.46093-.029297zm21.1757801 0c.15396.00045.30779.010227.46094.029297 2.5309901.308717 4.2505501 3.039596 4.0000001 6.103516-.25138 3.06399098-2.69628 5.27170198-4.91015 5.19531198-1.95554-.211382-2.34438-1.083173-3.09375-2.169921 0 0-.02755-2.706913.00195-4.048829.0293-1.341916.04297-3.167968.04297-3.167968 1.00381-1.111988 2.10762-1.942137 3.49804-1.941407zm-34.7285101.113282c2.53507-.144188 4.31722 1.575718 4.32227 4.818359 0 0-.68997.011803-3.70508-.023437-2.31523-.02706-4.2168.009765-4.2168.009765-.19391-2.622838 1.06454-4.660498 3.59961-4.804687zm-32.9023402.001953c2.3978301-.000678 4.4070501 1.989986 4.6503901 4.607422l.00195.03125c.24652 2.814923-1.63039 5.31746998-4.19531 5.59374998-2.56639.275444-4.85112-1.782036-5.10547-4.597657-.25516-2.815417 1.61611-5.325595 4.18164008-5.609375.15512-.017.31091-.02548.4668-.02539zm20.5312502.167969c.46259.000683 1.32734.07726 1.91796.353515.68963.322565 1.10029.874381 1.52735 1.248047l-.00195 7.37695298-.00391.138672c-.00008.0022.00008.003559 0 .005859 0 0-2.32718.591409-3.17383.685547-2.48944.274393-4.29186-1.834911-4.36133-4.68164-.0695-2.846729 1.15699-4.816433 3.64453-5.09961.14989-.01758.30048-.026714.45118-.027343zm-248.0507873 4.419921C52.4814392 51.5677284 47.1523452 61.6378904 47.1523452 72.9316414c0 10.044069 4.215586 19.12100098 11.00195305 25.62304697 3.85914005 1.474062 7.88331607 2.620872 12.0390621 3.408202-11.18893207-5.006653-18.9707031-16.07639-18.9707031-28.93554597 0-9.759107 4.48467002-18.48701398 11.53515605-24.31835997-.754104-1.171364-1.4105-2.407962-1.955078-3.703125zm45.8203163.144532c-.55592 1.298748-1.22697 2.536298-1.99414 3.708984 6.94822004 5.83059098 11.35742006 14.49151997 11.35742006 24.16796896 0 12.83009298-7.74792 23.87769497-18.8964861 28.90038597 4.17266607-.80185 8.2144961-1.962957 12.0859361-3.457027C115.911212 91.97488637 120.089842 82.9324934 120.089842 72.9316414c0-11.211093-5.25065003-21.21617398-13.4667901-27.78124997zm-38.7109412 9.32421798c-5.39060902 4.411819-8.82421803 11.052202-8.82421803 18.48046898 0 13.28282498 10.96936405 24.05078097 24.5000001 24.05078097 13.52948208 0 24.49804914-10.767956 24.49804914-24.05078097 0-7.358253-3.37088-13.941696-8.67383105-18.35351598-1.38307 1.107956-2.89045602 2.067718-4.49804703 2.865235 4.9250371 3.460687 8.1367181 9.120148 8.1367181 15.51953098 0 10.535299-8.69963004 19.07617198-19.4316391 19.07617198-10.73181805 0-19.4316411-8.540873-19.4316411-19.07617198 0-6.443354 3.259098-12.135951 8.24218804-15.58984398-1.615857-.814501-3.131625-1.792971-4.517579-2.921875zm15.6093751 5.613282c-7.23425405 0-13.0976561 5.757588-13.0976561 12.85937498 0 7.101975 5.86340206 12.859375 13.0976561 12.859375 7.23406304 0 13.09961007-5.757211 13.09961007-12.859375 0-7.101787-5.86554702-12.859375-13.09961006-12.859375zm203.44335705 2.863281c-5.34916002 0-11.70898005 2.012913-11.70898005 11.63085898 0 9.617569 6.36003 11.62890698 11.70898 11.62890698 2.65575 0 5.38758003-.647034 8.00586004-1.601563v-5.082031c-2.73046 1.193255-5.04985 1.636718-7.63086004 1.636718-2.95527 0-5.64843-1.193792-5.64843-6.58203098 0-5.388994 2.69316-6.582031 5.64843003-6.582031 2.58122003 0 4.90040004.443463 7.63086005 1.636719v-5.082031c-2.61807-.954718-5.35011-1.603516-8.00586-1.603516zm-21.4707001.068359c-4.82566003 0-9.23828005 2.08088-9.23828005 7.06054698 0 8.49244 11.48437 6.036413 11.48437 9.173828 0 1.330264-1.75952 1.910156-3.48046 1.910156-2.76793 0-5.34844004-.853016-7.70508006-2.626953v5.492188c2.20718 1.398391 5.08651003 2.21679698 8.64062005 2.21679698 4.86312 0 8.97852-2.659254 8.97852-6.751953 0-9.07217798-11.48438007-6.65015098-11.48438007-9.51562498 0-1.500487 2.16894-1.910157 3.74024-1.910157 1.87040005 0 3.85390006.579339 5.79883008 1.636719v-5.115234c-1.94472-.954907-4.30302-1.570313-6.73438-1.570313zm-103.64844054.205078V76.6289064c0 6.20727 3.59248 9.61718798 10.13868003 9.61718798 6.54619 0 10.13671004-3.409918 10.13671004-9.61718798v-13.404297h-2.69336v13.539063c0 4.877194-2.43118 7.230469-7.44335 7.230469-5.01258 0-7.44532002-2.353463-7.44532002-7.230469v-13.539063h-2.69336zm22.0683601 0v22.74804696h15.4492201v-2.386718H186.609382V63.22460942h-2.69532zm8.49219004 0v2.388672h8.82813003v20.35937496h2.69335V65.6132814h8.7910201v-2.388672H192.406252zm21.4707001 0v22.74804696h2.69141v-9.173828h6.35937l6.50977 9.173828h3.17969l-6.84571003-9.54882798c1.15959-.204946 5.72266006-1.363826 5.72266006-6.582031 0-4.365206-3.0663-6.617188-8.45312-6.617188h-9.16407zm29.5859402 0l-9.9492201 22.74804696h2.91797004l2.99219-7.09375h10.7734401l2.99218 7.09375h2.88086l-9.9140601-22.74804698h-2.69336zm53.45117022 0v22.74804696h6.4336001v-8.96875h8.00586005v8.96875h6.43359005V63.2246094h-6.43359v8.970703H303.347663v-8.970703h-6.43360007zm31.3457102 0l-9.91211 22.74804696h6.91992l1.94531-5.457031h8.15430005l1.94531 5.457031h6.91992006L334.320313 63.2246094h-6.06054zm16.5546801 0v22.74804696h17.5058601v-5.285156H351.248053V63.22460942h-6.43360004zm18.6640701 0v22.74804696h17.5058601v-5.285156H369.912113V63.22460942h-6.43359004zm-146.91016073 2.320313h6.32226c5.23716003 0 5.91016003 2.38600598 5.91016003 4.46679698 0 2.080979-.673 4.46875-5.91016005 4.46875h-6.32226005v-8.935547zm28.2421901.580078l4.37695004 10.40039098h-8.7539101l4.37696-10.400391zm86.4785105 2.99999998l2.50782 7.060547h-5.05079l2.54297-7.060547z" clip-rule="evenodd"/></svg>
