<svg xmlns="http://www.w3.org/2000/svg" viewBox="0 0 400 116"><path d="M 108.55273 15.878906 L 108.55273 17.509766 C 128.56948 26.216588 142.98851 45.060183 145.05859 67.408203 C 145.54281 66.53954 146.00815 65.658321 146.45508 64.767578 C 143.46826 42.712824 128.69443 24.31492 108.55273 15.878906 z M 58.931641 15.884766 C 38.609832 24.402305 23.754405 43.061467 20.962891 65.384766 C 21.318125 66.075469 21.68439 66.760196 22.0625 67.4375 C 24.135087 44.943224 38.719593 25.995863 58.931641 17.355469 L 58.931641 15.884766 z M 58.931641 31.378906 C 44.365096 39.727544 34.576172 55.234946 34.576172 72.988281 C 34.576172 77.159675 35.116895 81.206584 36.132812 85.066406 C 37.440722 86.247018 38.792735 87.381544 40.189453 88.462891 C 38.391558 83.614759 37.410156 78.383657 37.410156 72.925781 C 37.409964 56.776161 45.996715 42.595699 58.931641 34.542969 L 58.931641 31.378906 z M 108.55273 31.519531 L 108.55273 34.630859 C 121.40904 42.698498 129.93359 56.834663 129.93359 72.925781 C 129.93359 78.28609 128.98325 83.427017 127.24609 88.201172 C 128.58918 87.14851 129.89249 86.047665 131.15234 84.902344 C 132.14096 81.091965 132.66602 77.100984 132.66602 72.988281 C 132.66602 55.333079 122.98549 39.90044 108.55273 31.519531 z M 282.10938 33.287109 C 282.10938 33.287109 279.53651 33.301409 279.13672 33.318359 C 278.73693 33.335309 278.63005 33.325259 278.30469 33.449219 C 277.97971 33.573244 277.38733 34.008044 277.00195 34.478516 C 276.61657 34.948988 276.47854 35.570065 276.35742 36.005859 C 276.23626 36.441653 276.26367 36.888672 276.26367 36.888672 L 276.25391 39.298828 L 273.77344 39.310547 L 273.70898 41.324219 L 276.26562 41.310547 L 276.25391 52.384766 L 278.2793 52.371094 L 278.29102 41.335938 L 282.26367 41.335938 L 282.27734 39.310547 L 278.2793 39.310547 C 278.2793 39.310547 278.27032 37.968738 278.29102 37.390625 C 278.31252 36.804967 278.38042 36.262287 278.60742 35.916016 C 278.83449 35.569745 279.16647 35.455022 279.37695 35.367188 C 279.58743 35.279348 279.95898 35.287109 279.95898 35.287109 L 282.25195 35.287109 L 282.29102 33.292969 L 282.10938 33.287109 z M 338.28711 34.294922 C 338.27811 34.95938 338.27344 40.179687 338.27344 40.179688 C 337.69411 39.643746 336.03169 38.743332 334.69727 38.744141 C 334.49832 38.744499 334.29949 38.75688 334.10156 38.78125 C 330.82837 39.180051 328.44079 42.705498 328.76562 46.660156 C 329.09028 50.615007 332.00492 53.505168 335.2793 53.119141 C 338.55419 52.733401 339.83766 50.265567 339.86328 49.251953 L 339.86133 34.300781 C 339.32685 34.271911 338.96582 34.285552 338.28711 34.294922 z M 352.44336 34.294922 C 351.76465 34.285422 351.40167 34.271831 350.86719 34.300781 L 350.86523 49.251953 C 350.89083 50.265567 352.17632 52.733401 355.45117 53.119141 C 358.72556 53.505168 361.64019 50.615007 361.96484 46.660156 C 362.28968 42.705498 359.9021 39.180051 356.62891 38.78125 C 356.43098 38.75688 356.23215 38.744501 356.0332 38.744141 C 354.69878 38.743332 353.03636 39.643746 352.45703 40.179688 C 352.45703 40.179687 352.45206 34.95938 352.44336 34.294922 z M 303.25391 38.365234 C 303.25391 38.365234 299.66073 38.506682 297.93945 39.236328 C 297.56799 39.393789 297.03265 39.64755 296.6875 39.925781 C 296.54421 40.041287 296.39195 40.273981 296.34375 40.363281 C 296.18308 40.660789 296.23633 41.371094 296.23633 41.371094 L 296.26172 52.433594 L 298.3418 52.433594 L 298.3418 42.021484 C 298.3418 42.021484 298.32204 41.618327 298.36914 41.46875 C 298.41624 41.319173 298.46955 41.251049 298.53125 41.167969 C 298.76758 40.849722 299.73261 40.605464 300.46875 40.439453 C 301.39232 40.231174 303.24609 40.152344 303.24609 40.152344 L 303.25391 38.365234 z M 288.33984 38.601562 C 288.12593 38.601017 287.91212 38.612106 287.69922 38.634766 C 284.16844 39.021432 281.59256 42.450412 281.94336 46.296875 C 282.29397 50.141737 285.43646 52.951276 288.9668 52.576172 C 292.49775 52.201242 295.08292 48.782315 294.74414 44.935547 L 294.74023 44.890625 C 294.40321 41.316491 291.63829 38.599656 288.33984 38.601562 z M 321.75391 38.740234 C 321.556 38.730834 321.35459 38.731188 321.15039 38.742188 C 317.88328 38.917578 315.59428 41.496479 315.70508 45.066406 C 315.84161 49.464924 317.36709 50.948517 318.6582 51.734375 C 319.24253 52.090035 320.45734 52.532939 321.54688 52.554688 C 322.89371 52.581567 323.98035 52.317922 324.34961 52.185547 C 325.94815 51.599992 326.13707 51.53403 326.29492 51.189453 C 326.52393 50.689418 326.26172 49.46875 326.26172 49.46875 C 326.26172 49.46875 325.04137 50.163512 324.07812 50.46875 C 322.43099 50.990711 321.03241 50.678171 320.45898 50.484375 C 318.29989 49.754641 317.69318 47.030584 317.62109 46.857422 C 317.62109 46.857422 319.16123 46.841541 322.02539 46.837891 C 323.67989 46.835791 327.30273 46.810547 327.30273 46.810547 C 327.28823 46.082966 327.25973 45.17387 327.08008 43.335938 C 326.94146 41.225243 324.7226 38.880507 321.75391 38.740234 z M 308.82422 38.878906 C 308.62525 38.879527 308.42644 38.891253 308.22852 38.914062 C 304.94884 39.283324 302.55603 42.552676 302.88086 46.220703 C 303.20645 49.888088 306.12601 52.568203 309.40625 52.210938 C 310.11202 52.133828 311.09554 51.936382 311.76758 51.666016 C 311.92805 51.601456 312.29102 51.39843 312.29102 51.398438 C 312.29302 51.24241 312.29119 50.968803 312.29102 50.609375 C 312.29302 50.855778 312.29592 51.082663 312.29492 51.404297 C 312.29292 51.941261 312.30736 52.788043 312.28906 53.351562 C 312.28906 53.351562 312.09178 54.205488 311.83203 54.5625 C 311.57227 54.919512 310.81836 55.414062 310.81836 55.414062 C 310.81836 55.414062 308.79957 55.533323 307.79688 55.544922 C 306.61539 55.558592 304.29297 55.441406 304.29297 55.441406 L 304.30273 57.273438 C 304.30273 57.273438 306.68745 57.334924 307.88477 57.333984 C 308.67041 57.333362 309.98591 57.259484 310.75 57.181641 C 311.11212 57.144751 311.15953 57.136681 311.34961 57.070312 C 311.51804 57.011502 311.53935 56.960417 311.80078 56.783203 C 312.17554 56.529165 312.6969 56.136507 313.01172 55.728516 C 313.48298 55.117796 313.74805 53.484375 313.74805 53.484375 L 313.71289 41.845703 C 313.62649 41.441322 312.73889 40.318473 311.58789 39.664062 C 310.58854 39.095875 309.28834 38.879598 308.82422 38.878906 z M 364.14453 39.308594 L 361.95703 39.339844 C 361.95703 39.339843 363.70864 43.485297 364.60938 45.484375 C 365.45713 47.365855 367.06445 50.818359 367.06445 50.818359 C 367.06445 50.818359 367.34848 51.285324 367.33008 51.712891 C 367.30118 52.384327 366.9658 53.112946 366.72266 53.560547 C 366.37157 54.206889 365.84961 54.974609 365.84961 54.974609 C 365.84961 54.974609 365.50954 55.245218 365.29297 55.335938 C 365.20107 55.374448 364.30859 55.505859 364.30859 55.505859 L 363.26562 55.603516 C 363.26562 55.603516 363.00501 55.599411 362.94141 55.681641 C 362.8042 55.85909 362.91577 56.180957 362.98438 56.511719 C 363.02708 56.717312 363.04838 56.853808 363.14062 57.042969 C 363.20033 57.165197 363.22762 57.195186 363.27539 57.228516 C 363.38152 57.302466 363.41443 57.302781 363.64648 57.300781 C 364.20224 57.295881 365.48149 57.16548 365.81445 57.03125 C 366.5143 56.74911 367.18925 56.329511 367.68945 55.578125 C 368.62661 54.170376 368.97213 53.21603 370.04102 50.570312 C 371.10992 47.924596 374.31445 39.308594 374.31445 39.308594 L 372.30273 39.398438 L 368.50781 49.380859 C 368.50781 49.380859 366.9125 46.157539 366.25586 44.523438 C 365.59922 42.889333 364.14453 39.308594 364.14453 39.308594 z M 334.77734 40.302734 C 336.16776 40.302004 337.27158 41.132153 338.27539 42.244141 C 338.27539 42.244141 338.28906 44.070193 338.31836 45.412109 C 338.34766 46.754025 338.32031 49.460938 338.32031 49.460938 C 337.57094 50.547688 337.1821 51.419477 335.22656 51.630859 C 333.01269 51.707249 330.56779 49.499538 330.31641 46.435547 C 330.06586 43.371627 331.78542 40.640748 334.31641 40.332031 C 334.46956 40.312961 334.62339 40.303184 334.77734 40.302734 z M 355.95312 40.302734 C 356.10708 40.303184 356.26091 40.312961 356.41406 40.332031 C 358.94505 40.640748 360.66461 43.371627 360.41406 46.435547 C 360.16268 49.499538 357.71778 51.707249 355.50391 51.630859 C 353.54837 51.419477 353.15953 50.547686 352.41016 49.460938 C 352.41016 49.460938 352.38261 46.754025 352.41211 45.412109 C 352.44141 44.070193 352.45508 42.244141 352.45508 42.244141 C 353.45889 41.132153 354.5627 40.302004 355.95312 40.302734 z M 321.22461 40.416016 C 323.75968 40.271828 325.54183 41.991734 325.54688 45.234375 C 325.54688 45.234375 324.85691 45.246178 321.8418 45.210938 C 319.52657 45.183878 317.625 45.220703 317.625 45.220703 C 317.43109 42.597865 318.68954 40.560205 321.22461 40.416016 z M 288.32227 40.417969 C 290.7201 40.417291 292.72932 42.407955 292.97266 45.025391 L 292.97461 45.056641 C 293.22113 47.871564 291.34422 50.374111 288.7793 50.650391 C 286.21291 50.925835 283.92818 48.868355 283.67383 46.052734 C 283.41867 43.237317 285.28994 40.727139 287.85547 40.443359 C 288.01059 40.426359 288.16638 40.417879 288.32227 40.417969 z M 308.85352 40.585938 C 309.31611 40.586621 310.18086 40.663198 310.77148 40.939453 C 311.46111 41.262018 311.87177 41.813834 312.29883 42.1875 L 312.29688 49.564453 L 312.29297 49.703125 C 312.29289 49.705325 312.29305 49.706684 312.29297 49.708984 C 312.29297 49.708984 309.96579 50.300393 309.11914 50.394531 C 306.6297 50.668924 304.82728 48.55962 304.75781 45.712891 C 304.68831 42.866162 305.9148 40.896458 308.40234 40.613281 C 308.55223 40.595701 308.70282 40.586567 308.85352 40.585938 z M 60.802734 45.005859 C 52.481438 51.567728 47.152344 61.63789 47.152344 72.931641 C 47.152344 82.97571 51.36793 92.052642 58.154297 98.554688 C 62.013437 100.02875 66.037613 101.17556 70.193359 101.96289 C 59.004427 96.956237 51.222656 85.8865 51.222656 73.027344 C 51.222656 63.268237 55.707326 54.54033 62.757812 48.708984 C 62.003708 47.53762 61.347312 46.301022 60.802734 45.005859 z M 106.62305 45.150391 C 106.06713 46.449139 105.39608 47.686689 104.62891 48.859375 C 111.57713 54.689966 115.98633 63.350895 115.98633 73.027344 C 115.98633 85.857437 108.23841 96.905039 97.089844 101.92773 C 101.26251 101.12588 105.30434 99.964773 109.17578 98.470703 C 115.91121 91.974886 120.08984 82.932493 120.08984 72.931641 C 120.08984 61.720548 114.83919 51.715467 106.62305 45.150391 z M 67.912109 54.474609 C 62.5215 58.886428 59.087891 65.526811 59.087891 72.955078 C 59.087891 86.237903 70.057255 97.005859 83.587891 97.005859 C 97.117373 97.005859 108.08594 86.237903 108.08594 72.955078 C 108.08594 65.596825 104.71506 59.013382 99.412109 54.601562 C 98.029039 55.709518 96.521653 56.66928 94.914062 57.466797 C 99.839099 60.927484 103.05078 66.586945 103.05078 72.986328 C 103.05078 83.521627 94.35115 92.0625 83.619141 92.0625 C 72.887323 92.0625 64.1875 83.521627 64.1875 72.986328 C 64.1875 66.542974 67.446598 60.850377 72.429688 57.396484 C 70.813831 56.581983 69.298063 55.603513 67.912109 54.474609 z M 83.521484 60.087891 C 76.28723 60.087891 70.423828 65.845479 70.423828 72.947266 C 70.423828 80.049241 76.28723 85.806641 83.521484 85.806641 C 90.755547 85.806641 96.621094 80.04943 96.621094 72.947266 C 96.621094 65.845479 90.755547 60.087891 83.521484 60.087891 z M 286.96484 62.951172 C 281.61568 62.951172 275.25586 64.964085 275.25586 74.582031 C 275.25586 84.1996 281.61589 86.210937 286.96484 86.210938 C 289.62059 86.210938 292.35242 85.563904 294.9707 84.609375 L 294.9707 79.527344 C 292.24024 80.720599 289.92085 81.164062 287.33984 81.164062 C 284.38457 81.164062 281.69141 79.97027 281.69141 74.582031 C 281.69141 69.193037 284.38457 68 287.33984 68 C 289.92106 68 292.24024 68.443463 294.9707 69.636719 L 294.9707 64.554688 C 292.35263 63.59997 289.62059 62.951172 286.96484 62.951172 z M 265.49414 63.019531 C 260.66848 63.019531 256.25586 65.100411 256.25586 70.080078 C 256.25586 78.572518 267.74023 76.116491 267.74023 79.253906 C 267.74023 80.58417 265.98071 81.164062 264.25977 81.164062 C 261.49184 81.164062 258.91133 80.311046 256.55469 78.537109 L 256.55469 84.029297 C 258.76187 85.427688 261.6412 86.246094 265.19531 86.246094 C 270.05843 86.246094 274.17383 83.58684 274.17383 79.494141 C 274.17383 70.421963 262.68945 72.84399 262.68945 69.978516 C 262.68945 68.478029 264.85839 68.068359 266.42969 68.068359 C 268.30009 68.068359 270.28359 68.647698 272.22852 69.705078 L 272.22852 64.589844 C 270.2838 63.634937 267.9255 63.019531 265.49414 63.019531 z M 161.8457 63.224609 L 161.8457 76.628906 C 161.8457 82.836176 165.43818 86.246094 171.98438 86.246094 C 178.53057 86.246094 182.12109 82.836176 182.12109 76.628906 L 182.12109 63.224609 L 179.42773 63.224609 L 179.42773 76.763672 C 179.42773 81.640866 176.99655 83.994141 171.98438 83.994141 C 166.9718 83.994141 164.53906 81.640678 164.53906 76.763672 L 164.53906 63.224609 L 161.8457 63.224609 z M 183.91406 63.224609 L 183.91406 85.972656 L 199.36328 85.972656 L 199.36328 83.585938 L 186.60938 83.585938 L 186.60938 63.224609 L 183.91406 63.224609 z M 192.40625 63.224609 L 192.40625 65.613281 L 201.23438 65.613281 L 201.23438 85.972656 L 203.92773 85.972656 L 203.92773 65.613281 L 212.71875 65.613281 L 212.71875 63.224609 L 192.40625 63.224609 z M 213.87695 63.224609 L 213.87695 85.972656 L 216.56836 85.972656 L 216.56836 76.798828 L 222.92773 76.798828 L 229.4375 85.972656 L 232.61719 85.972656 L 225.77148 76.423828 C 226.93107 76.218882 231.49414 75.060002 231.49414 69.841797 C 231.49414 65.476591 228.42784 63.224609 223.04102 63.224609 L 213.87695 63.224609 z M 243.46289 63.224609 L 233.51367 85.972656 L 236.43164 85.972656 L 239.42383 78.878906 L 250.19727 78.878906 L 253.18945 85.972656 L 256.07031 85.972656 L 246.15625 63.224609 L 243.46289 63.224609 z M 296.91406 63.224609 L 296.91406 85.972656 L 303.34766 85.972656 L 303.34766 77.003906 L 311.35352 77.003906 L 311.35352 85.972656 L 317.78711 85.972656 L 317.78711 63.224609 L 311.35352 63.224609 L 311.35352 72.195312 L 303.34766 72.195312 L 303.34766 63.224609 L 296.91406 63.224609 z M 328.25977 63.224609 L 318.34766 85.972656 L 325.26758 85.972656 L 327.21289 80.515625 L 335.36719 80.515625 L 337.3125 85.972656 L 344.23242 85.972656 L 334.32031 63.224609 L 328.25977 63.224609 z M 344.81445 63.224609 L 344.81445 85.972656 L 362.32031 85.972656 L 362.32031 80.6875 L 351.24805 80.6875 L 351.24805 63.224609 L 344.81445 63.224609 z M 363.47852 63.224609 L 363.47852 85.972656 L 380.98438 85.972656 L 380.98438 80.6875 L 369.91211 80.6875 L 369.91211 63.224609 L 363.47852 63.224609 z M 216.56836 65.544922 L 222.89062 65.544922 C 228.12778 65.544922 228.80078 67.930928 228.80078 70.011719 C 228.80078 72.092698 228.12778 74.480469 222.89062 74.480469 L 216.56836 74.480469 L 216.56836 65.544922 z M 244.81055 66.125 L 249.1875 76.525391 L 240.43359 76.525391 L 244.81055 66.125 z M 331.28906 69.125 L 333.79688 76.185547 L 328.74609 76.185547 L 331.28906 69.125 z "/></svg>
