<?xml version="1.0" encoding="UTF-8" standalone="no"?>
<svg
   xmlns:dc="http://purl.org/dc/elements/1.1/"
   xmlns:cc="http://creativecommons.org/ns#"
   xmlns:rdf="http://www.w3.org/1999/02/22-rdf-syntax-ns#"
   xmlns:svg="http://www.w3.org/2000/svg"
   xmlns="http://www.w3.org/2000/svg"
   xmlns:sodipodi="http://sodipodi.sourceforge.net/DTD/sodipodi-0.dtd"
   xmlns:inkscape="http://www.inkscape.org/namespaces/inkscape"
   viewBox="0 0 400 116"
   id="svg2"
   version="1.1"
   inkscape:version="0.91 r13725"
   sodipodi:docname="us-banner_transparent_v2 responsive.svg">
  <metadata
     id="metadata10">
    <rdf:RDF>
      <cc:Work
         rdf:about="">
        <dc:format>image/svg+xml</dc:format>
        <dc:type
           rdf:resource="http://purl.org/dc/dcmitype/StillImage" />
      </cc:Work>
    </rdf:RDF>
  </metadata>
  <defs
     id="defs8" />
  <sodipodi:namedview
     pagecolor="#ffffff"
     bordercolor="#666666"
     borderopacity="1"
     objecttolerance="10"
     gridtolerance="10"
     guidetolerance="10"
     inkscape:pageopacity="0"
     inkscape:pageshadow="2"
     inkscape:window-width="1280"
     inkscape:window-height="714"
     id="namedview6"
     showgrid="false"
     inkscape:zoom="1.4071425"
     inkscape:cx="194.167"
     inkscape:cy="37.011073"
     inkscape:window-x="0"
     inkscape:window-y="1"
     inkscape:window-maximized="1"
     inkscape:current-layer="svg2" />
  <g
     id="g4198"
     transform="matrix(0.19222657,0,0,0.1887167,-205.77118,-63.832408)"
     style="opacity:1;fill:#000000;fill-opacity:1">
    <path
       d="m 1336.9338,725.21671 c 0,-51.713 23.325,-97.961 60.003,-128.861 -3.923,-6.207 -7.338,-12.763 -10.171,-19.626 -43.289,34.771 -71.008,88.135 -71.008,147.98 0,53.223 21.928,101.318 57.232,135.772 20.076,7.811 41.017,13.882 62.636,18.054 -58.207,-26.53 -98.692,-85.179 -98.692,-153.319 z m 295.812,-0.389 c 0,-38.991 -17.531,-73.873 -45.118,-97.251 -7.195,5.871 -15.045,10.96 -23.408,15.186 25.621,18.338 42.336,48.326 42.336,82.236 0,55.826 -45.257,101.084 -101.087,101.084 -55.829,0 -101.087,-45.258 -101.087,-101.084 0,-34.143 16.946,-64.312 42.869,-82.614 -8.406,-4.316 -16.292,-9.5 -23.502,-15.482 -28.043,23.378 -45.897,58.563 -45.897,97.925 0,70.385 57.06,127.445 127.449,127.445 70.383,0 127.445,-57.06 127.445,-127.445 z m -255.714,-203.539 0,-16.77 c -75.778,44.239 -126.702,126.412 -126.702,220.486 0,22.104 2.814,43.553 8.099,64.006 6.804,6.256 13.836,12.268 21.102,17.998 -9.353,-25.69 -14.459,-53.417 -14.459,-82.338 -10e-4,-85.576 44.67,-160.711 111.96,-203.382 z m 258.141,-16.028 0,16.487 c 66.881,42.75 111.224,117.657 111.224,202.923 0,28.404 -4.936,55.654 -13.973,80.952 6.987,-5.578 13.761,-11.411 20.315,-17.48 5.143,-20.191 7.881,-41.345 7.881,-63.138 0,-93.554 -50.365,-175.334 -125.447,-219.744 z m -10.036,72.234 c -2.892,6.882 -6.389,13.442 -10.38,19.656 36.146,30.896 59.086,76.79 59.086,128.065 0,67.986 -40.302,126.525 -98.299,153.14 21.707,-4.249 42.729,-10.403 62.869,-18.32 35.039,-34.421 56.778,-82.333 56.778,-135.327 0,-59.407 -27.312,-112.426 -70.054,-147.214 z m 10.036,-155.108 0,8.645 c 104.131,46.137 179.146,145.982 189.915,264.403 2.519,-4.603 4.932,-9.27 7.257,-13.99 -15.538,-116.867 -92.391,-214.356 -197.172,-259.058 z m -258.141,7.828 0,-7.794 c -105.718,45.134 -182.994,144.005 -197.516,262.295 1.848,3.66 3.75,7.286 5.717,10.875 10.782,-119.196 86.652,-219.591 191.799,-265.376 z m 127.927,362.712 c 37.633,0 68.142,-30.505 68.142,-68.139 0,-37.632 -30.509,-68.141 -68.142,-68.141 -37.634,0 -68.142,30.509 -68.142,68.141 0,37.633 30.508,68.139 68.142,68.139 z"
       id="signet"
       inkscape:connector-curvature="0"
       style="clip-rule:evenodd;fill:#000000;fill-rule:evenodd;fill-opacity:1" />
    <path
       d="m 2003.8776,673.26733 0,71.748 c 0,25.844 -12.6505,38.314 -38.7248,38.314 -26.0764,0 -38.7248,-12.471 -38.7248,-38.314 l 0,-71.748 -14.0117,0 0,71.028 c 0,32.892 18.6819,50.961 52.7365,50.961 34.0546,0 52.7376,-18.069 52.7376,-50.961 l 0,-71.028 -14.0128,0 z m 37.3573,107.895 0,-107.895 -14.0128,0 0,120.544 80.3711,0 0,-12.648 -66.3583,0 z m 30.1576,-107.895 0,12.654 45.9277,0 0,107.89 14.0095,0 0,-107.89 45.7318,0 0,-12.654 -105.669,0 z m 173.5769,69.943 c 6.0324,-1.086 29.7721,-7.23 29.7721,-34.881 0,-23.131 -15.9554,-35.062 -43.9787,-35.062 l -47.6765,0 0,120.544 14.0106,0 0,-48.613 33.0823,0 33.8608,48.613 16.5411,0 -35.6117,-50.601 z m -14.9851,-10.3 -32.8874,0 0,-47.351 32.8874,0 c 27.2447,0 30.7477,12.648 30.7477,23.674 0,11.027 -3.503,23.677 -30.7477,23.677 z m 121.0331,-59.643 -14.0117,0 -51.763,120.544 15.1778,0 15.5688,-37.591 56.0456,0 15.5687,37.591 14.9841,0 -51.5703,-120.544 z m -29.7732,70.485 22.7684,-55.119 22.7685,55.119 -45.5369,0 z m 130.3746,-71.566 c -25.104,0 -48.0684,11.022 -48.0684,37.409 0,45.001 59.7434,31.988 59.7434,48.613 0,7.049 -9.1466,10.122 -18.0993,10.122 -14.3993,0 -27.8284,-4.517 -40.0881,-13.917 l 0,29.097 c 11.4822,7.41 26.4651,11.746 44.9543,11.746 25.2989,0 46.7019,-14.094 46.7019,-35.781 0,-48.073 -59.7412,-35.239 -59.7412,-50.423 0,-7.951 11.2862,-10.118 19.4604,-10.118 9.7302,0 20.044,3.071 30.1619,8.674 l 0,-27.11 c -10.1168,-5.06 -22.3765,-8.312 -35.0249,-8.312 z m 113.6386,26.385 c 13.428,0 25.4917,2.35 39.6961,8.673 l 0,-26.928 c -13.6197,-5.059 -27.8273,-8.492 -41.643,-8.492 -27.8274,0 -60.9096,10.663 -60.9096,61.628 0,50.963 33.0833,61.624 60.9096,61.624 13.8157,0 28.0222,-3.434 41.643,-8.492 l 0,-26.928 c -14.2044,6.323 -26.2692,8.675 -39.6961,8.675 -15.3739,0 -29.3844,-6.327 -29.3844,-34.879 0,-28.556 14.0105,-34.881 29.3844,-34.881 z m 124.9291,-25.304 0,47.536 -41.6474,0 0,-47.536 -33.4731,0 0,120.544 33.4731,0 0,-47.529 41.6474,0 0,47.529 33.4677,0 0,-120.544 -33.4677,0 z m 119.4739,0 -31.5263,0 -51.5681,120.544 36.0015,0 10.1179,-28.915 42.4237,0 10.1179,28.915 36.0026,0 -51.5692,-120.544 z m -28.9957,68.679 13.232,-37.411 13.0382,37.411 -26.2702,0 z m 117.0585,23.854 0,-92.533 -33.4731,0 0,120.544 91.0758,0 0,-28.011 -57.6027,0 z m 97.0964,0 0,-92.533 -33.4721,0 0,120.544 91.0726,0 0,-28.011 -57.6005,0 z"
       id="text"
       inkscape:connector-curvature="0"
       style="opacity:1;fill:#000000;fill-opacity:1" />
  </g>
  <a
     id="a5058"
     style="fill:#000000;fill-opacity:1">
    <path
       sodipodi:nodetypes="csccccccccccccccccccccccccccccccccccccccsscccccscsccccccsccccssscccsccscccccccsccccccsccsssssccscccscsscccccccccssscccscccscccccscccccccscscsccccccccsccsccccccsscssccccccs"
       inkscape:connector-curvature="0"
       style="fill:#000000;fill-opacity:1"
       id="path4378"
       d="m 282.10938,33.287109 c 0,0 -2.57287,0.0143 -2.97266,0.03125 -0.39979,0.01695 -0.50667,0.0069 -0.83203,0.13086 -0.32498,0.124025 -0.91736,0.558825 -1.30274,1.029297 -0.38538,0.470472 -0.52341,1.091549 -0.64453,1.527343 -0.12116,0.435794 -0.0937,0.882813 -0.0937,0.882813 l -0.01,2.410156 -2.48047,0.01172 -0.0645,2.013672 2.55664,-0.01367 -0.0117,11.074219 2.02539,-0.01367 0.0117,-11.035156 3.97265,0 0.0137,-2.025391 -3.99804,0 c 0,0 -0.009,-1.341809 0.0117,-1.919922 0.0215,-0.585658 0.0894,-1.128338 0.3164,-1.474609 0.22707,-0.346271 0.55905,-0.460994 0.76953,-0.548828 0.21048,-0.08784 0.58203,-0.08008 0.58203,-0.08008 l 2.29297,0 0.0391,-1.99414 z m 56.17773,1.007813 c -0.009,0.664458 -0.0137,5.884765 -0.0137,5.884766 -0.57933,-0.535942 -2.24175,-1.436356 -3.57617,-1.435547 -0.19895,3.58e-4 -0.39778,0.01274 -0.59571,0.03711 -3.27319,0.398801 -5.66077,3.924248 -5.33594,7.878906 0.32466,3.954851 3.2393,6.845012 6.51368,6.458985 3.27489,-0.38574 4.55836,-2.853574 4.58398,-3.867188 l -0.002,-14.951172 c -0.53448,-0.02887 -0.89551,-0.01527 -1.57422,-0.0059 z m 14.15625,0 c -0.67871,-0.0095 -1.04169,-0.02305 -1.57617,0.0059 l -0.002,14.951172 c 0.0256,1.013614 1.31109,3.481448 4.58594,3.867188 3.27439,0.386027 6.18902,-2.504134 6.51367,-6.458985 0.32484,-3.954658 -2.06274,-7.480105 -5.33593,-7.878906 -0.19793,-0.02437 -0.39676,-0.03675 -0.59571,-0.03711 -1.33442,-8.09e-4 -2.99684,0.899605 -3.57617,1.435547 0,-10e-7 -0.005,-5.220308 -0.0137,-5.884766 z m -49.18945,4.070312 c 0,0 -3.59318,0.141448 -5.31446,0.871094 -0.37146,0.157461 -0.9068,0.411222 -1.25195,0.689453 -0.14329,0.115506 -0.29555,0.3482 -0.34375,0.4375 -0.16067,0.297508 -0.10742,1.007813 -0.10742,1.007813 l 0.0254,11.0625 2.08008,0 0,-10.41211 c 0,0 -0.0198,-0.403157 0.0273,-0.552734 0.0471,-0.149577 0.10041,-0.217701 0.16211,-0.300781 0.23633,-0.318247 1.20136,-0.562505 1.9375,-0.728516 0.92357,-0.208279 2.77734,-0.287109 2.77734,-0.287109 z m -14.91407,0.236328 c -0.21391,-5.45e-4 -0.42772,0.01054 -0.64062,0.0332 -3.53078,0.386666 -6.10666,3.815646 -5.75586,7.662109 0.35061,3.844862 3.4931,6.654401 7.02344,6.279297 3.53095,-0.37493 6.11612,-3.793857 5.77734,-7.640625 l -0.004,-0.04492 c -0.33702,-3.574134 -3.10194,-6.29097 -6.40039,-6.289063 z m 33.41407,0.138672 c -0.19791,-0.0094 -0.39932,-0.009 -0.60352,0.002 -3.26711,0.17539 -5.55611,2.754291 -5.44531,6.324218 0.13653,4.398518 1.66201,5.882111 2.95312,6.667969 0.58433,0.35566 1.79915,0.798565 2.88868,0.820313 1.34683,0.02688 2.43347,-0.236766 2.80273,-0.369141 1.59854,-0.585555 1.78746,-0.651517 1.94531,-0.996094 0.22901,-0.500035 -0.0332,-1.720703 -0.0332,-1.720703 0,0 -1.22036,0.694762 -2.1836,1 -1.64713,0.521961 -3.04571,0.209426 -3.61914,0.01563 -2.15909,-0.729734 -2.7658,-3.453791 -2.83789,-3.626953 0,0 1.54014,-0.01588 4.4043,-0.01953 1.6545,-0.0021 5.27734,-0.02734 5.27734,-0.02734 -0.0145,-0.727581 -0.043,-1.636676 -0.22265,-3.474609 -0.13862,-2.110695 -2.35748,-4.455431 -5.32617,-4.595704 z m -12.92969,0.138672 c -0.19897,6.21e-4 -0.39778,0.01235 -0.5957,0.03516 -3.27968,0.369262 -5.67249,3.638614 -5.34766,7.306641 0.32559,3.667385 3.24515,6.347501 6.52539,5.990235 0.70577,-0.07711 1.68929,-0.274556 2.36133,-0.544922 0.16047,-0.06456 0.52344,-0.267585 0.52344,-0.267578 0.002,-0.156028 1.7e-4,-0.429635 0,-0.789063 0.002,0.246403 0.005,0.473288 0.004,0.794922 -0.002,0.536964 0.0123,1.383746 -0.006,1.947265 0,0 -0.19728,0.853926 -0.45703,1.210938 -0.25976,0.357012 -1.01367,0.851562 -1.01367,0.851562 0,0 -2.01878,0.119261 -3.02148,0.13086 -1.18149,0.01367 -3.50391,-0.103516 -3.50391,-0.103516 l 0.01,1.832032 c 0,0 2.38472,0.06149 3.58204,0.06055 0.78564,-6.22e-4 2.10114,-0.0745 2.86523,-0.152343 0.36212,-0.03689 0.40953,-0.04496 0.59961,-0.111329 0.16843,-0.05881 0.18974,-0.109895 0.45117,-0.287109 0.37476,-0.254038 0.89612,-0.646696 1.21094,-1.054687 0.47126,-0.61072 0.73633,-2.244141 0.73633,-2.244141 l -0.0352,-11.638672 c -0.0864,-0.404381 -0.974,-1.52723 -2.125,-2.181641 -0.99935,-0.568187 -2.29955,-0.784464 -2.76367,-0.785156 z m 55.32031,0.429688 -2.1875,0.03125 c 0,-10e-7 1.75162,4.145453 2.65235,6.144531 0.84775,1.88148 2.45507,5.333984 2.45507,5.333984 0,0 0.28403,0.466965 0.26563,0.894532 -0.0289,0.671436 -0.36428,1.400055 -0.60742,1.847656 -0.35109,0.646342 -0.87305,1.414062 -0.87305,1.414062 0,0 -0.34007,0.270609 -0.55664,0.361329 -0.0919,0.03851 -0.98438,0.169921 -0.98438,0.169921 l -1.04297,0.09766 c 0,0 -0.26061,-0.0041 -0.32421,0.07813 -0.13721,0.177449 -0.0256,0.499316 0.043,0.830078 0.0427,0.205593 0.064,0.342089 0.15624,0.53125 0.0597,0.122228 0.087,0.152217 0.13477,0.185547 0.10613,0.07395 0.13904,0.07427 0.37109,0.07227 0.55576,-0.0049 1.83501,-0.135301 2.16797,-0.269531 0.69985,-0.28214 1.3748,-0.701739 1.875,-1.453125 0.93716,-1.407749 1.28268,-2.362095 2.35157,-5.007813 1.0689,-2.645716 4.27343,-11.261718 4.27343,-11.261718 l -2.01172,0.08984 -3.79492,9.982421 c 0,0 -1.59531,-3.223319 -2.25195,-4.857421 -0.65664,-1.634104 -2.11133,-5.214844 -2.11133,-5.214844 z m -29.36719,0.99414 c 1.39042,-7.3e-4 2.49424,0.829419 3.49805,1.941407 0,0 0.0137,1.826052 0.043,3.167968 0.0293,1.341916 0.002,4.048829 0.002,4.048829 -0.74937,1.08675 -1.13821,1.958539 -3.09375,2.169921 -2.21387,0.07639 -4.65877,-2.131321 -4.91015,-5.195312 -0.25055,-3.06392 1.46901,-5.794799 4,-6.103516 0.15315,-0.01907 0.30698,-0.02885 0.46093,-0.0293 z m 21.17578,0 c 0.15396,4.5e-4 0.30779,0.01023 0.46094,0.0293 2.53099,0.308717 4.25055,3.039596 4,6.103516 -0.25138,3.063991 -2.69628,5.271702 -4.91015,5.195312 -1.95554,-0.211382 -2.34438,-1.083172 -3.09375,-2.169921 0,0 -0.0275,-2.706913 0.002,-4.048829 0.0293,-1.341916 0.043,-3.167968 0.043,-3.167968 1.00381,-1.111988 2.10762,-1.942137 3.49804,-1.941407 z m -34.72851,0.113282 c 2.53507,-0.144188 4.31722,1.575718 4.32227,4.818359 0,0 -0.68997,0.0118 -3.70508,-0.02344 -2.31523,-0.02706 -4.2168,0.0098 -4.2168,0.0098 -0.19391,-2.622838 1.06454,-4.660498 3.59961,-4.804687 z m -32.90234,0.002 c 2.39783,-6.78e-4 4.40705,1.989986 4.65039,4.607422 l 0.002,0.03125 c 0.24652,2.814923 -1.63039,5.31747 -4.19531,5.59375 -2.56639,0.275444 -4.85112,-1.782036 -5.10547,-4.597657 -0.25516,-2.815417 1.61611,-5.325595 4.18164,-5.609375 0.15512,-0.017 0.31091,-0.02548 0.4668,-0.02539 z m 20.53125,0.167969 c 0.46259,6.83e-4 1.32734,0.07726 1.91796,0.353515 0.68963,0.322565 1.10029,0.874381 1.52735,1.248047 l -0.002,7.376953 -0.004,0.138672 c -8e-5,0.0022 8e-5,0.0036 0,0.0059 0,0 -2.32718,0.591409 -3.17383,0.685547 -2.48944,0.274393 -4.29186,-1.834911 -4.36133,-4.68164 -0.0695,-2.846729 1.15699,-4.816433 3.64453,-5.09961 0.14989,-0.01758 0.30048,-0.02671 0.45118,-0.02734 z" />
  </a>
</svg>
