<svg xmlns="http://www.w3.org/2000/svg" width="400" height="116">
  <rect width="400.32809" height="116.35553" y=".35513648" fill="#302e21" fill-rule="evenodd" rx="0"/>
  <g fill="#fff">
    <path fill-rule="evenodd" d="M51.2230187 73.0280963c0-9.7591067 4.48368474-18.48687665 11.53417087-24.31822268-.75410483-1.17136456-1.41055857-2.40859124-1.95513644-3.70375396-8.321296 6.56186838-13.6496243 16.63254636-13.6496243 27.92629727 0 10.04406892 4.21514424 19.1203986 11.00151107 25.6224438 3.85914062 1.47406614 7.88455722 2.61976522 12.04030344 3.4070913C59.00531138 96.95529796 51.2230187 85.88725223 51.2230187 73.0280963zm56.86292612-.0734108c0-7.35825285-3.369924-13.94106878-8.6728784-18.3528878-1.38307016 1.10795575-2.89204874 2.06833504-4.49963954 2.8658518 4.92503695 3.46068686 8.13810407 9.11992326 8.13810407 15.51930656 0 10.5352985-8.69959788 19.0762389-19.43160728 19.0762389-10.73181718 0-19.4316073-8.5409404-19.4316073-19.0762389 0-6.4433543 3.25747147-12.1367484 8.24056084-15.59064146-1.6158565-.81450128-3.1317552-1.79280865-4.5177088-2.92171195-5.3906097 4.411819-8.8226229 11.0518161-8.8226229 18.48008285 0 13.28282493 10.9684481 24.05099983 24.4990842 24.05099983 13.5294827 0 24.4983153-10.7681749 24.4983153-24.05099983zM58.9309197 34.5434771v-3.16477906c-14.56654504 8.3486381-24.3554909 23.85605548-24.3554909 41.60939032 0 4.17139393.54092557 8.21917843 1.556843 12.0790011 1.30790958 1.18061167 2.65964682 2.31517647 4.05636507 3.39652316-1.79789512-4.84813202-2.77940398-10.08067996-2.77940398-15.53855564-.0001922-16.14962032 8.5867609-30.32884958 21.5216868-38.38157988zm49.621559-3.02475127v3.11137223c12.85630523 8.06763893 21.38020802 22.20384078 21.38020802 38.29495892 0 5.36030914-.94883035 10.50283922-2.68598186 15.2769943 1.34308704-1.05266176 2.64522983-2.15344627 3.90508277-3.29876792.98862125-3.8103789 1.5149376-7.80249196 1.5149376-11.915195 0-17.65520216-9.6814912-33.08845388-24.11424653-41.46936253zm-1.92918586 13.6317621c-.55591924 1.29874834-1.22813555 2.5367299-1.9953118 3.70941546 6.9482216 5.8305911 11.35789912 14.4915554 11.35789912 24.1680041 0 12.8300935-7.74711522 23.8773804-18.8956796 28.9000754 4.17266215-.8018573 8.2136491-1.9632199 12.08509223-3.45729 6.7354267-6.4958176 10.9142401-15.5376121 10.9142401-25.5384649 0-11.211093-5.2500921-21.2166637-13.4662402-27.7817403zm1.92918586-29.2714699v1.63145588c20.01674496 8.7068224 34.4366211 27.5492413 36.50670904 49.8972617.48421873-.8686629.94806145-1.7494038 1.39498822-2.6401466-2.98681644-22.0547545-17.76000503-40.4525569-37.90169726-48.8885708zm-49.621559 1.47727433V15.8854344c-20.32180853 8.51753954-35.17630896 27.1761484-37.9678232 49.49944683.3552347.69070312.72084963 1.37498988 1.0989593 2.0522941 2.07258687-22.49427576 16.65681674-41.44048886 36.8688639-50.08088297zm24.59096842 68.4498117c7.2340625 0 13.09870293-5.75680294 13.09870293-12.85896723 0-7.10178685-5.86464043-12.85934465-13.09870293-12.85934465-7.23425474 0-13.09870294 5.7575578-13.09870294 12.85934465 0 7.10197557 5.8644482 12.85896722 13.09870294 12.85896722z" clip-rule="evenodd"/>
    <path d="M179.42733775 63.22438074v13.5400458c0 4.87719438-2.43176223 7.23049163-7.44393548 7.23049163-5.01257693 0-7.44393548-2.35348596-7.44393548-7.23049164v-13.5400458h-2.6934211V76.6285505c0 6.2072697 3.5911575 9.61719175 10.1373565 9.61719175 6.5461989 0 10.1375679-3.40992205 10.1375679-9.61719175V63.22438074h-2.6936325zm7.18106564 20.36158834V63.22438074h-2.6936325v22.74866588h15.4494609V83.5861578h-12.7558284zm5.797092-20.36158834v2.38802112h8.8285242v20.36064476h2.6929981V65.61240186h8.790867v-2.38802112h-20.3123894zm33.3660921 13.19941214c1.1595875-.20494633 5.7229886-1.36442174 5.7229886-6.5826272 0-4.365206-3.0670518-6.61678494-8.4538747-6.61678494h-9.1646901v22.74866588h2.6932096v-9.17408494h6.359297l6.5089454 9.17408494h3.1796389l-6.845515-9.54925374zm-2.8805344-1.943782h-6.3218321V65.5440864h6.3218321c5.2371552 0 5.9105249 2.38688883 5.9105249 4.46767917 0 2.08097905-.6733697 4.4682453-5.9105249 4.4682453zm23.2657776-11.25563014h-2.6934211l-9.950224 22.74866588h2.9175764l2.992737-7.09404947h10.7734534l2.9927178 7.09404947h2.88034215l-9.9131819-22.74866588zm-5.7232001 13.3016966l4.3766914-10.4018758 4.3767106 10.4018758h-8.7534021zm25.0614621-13.50569936c-4.8256558 0-9.2400237 2.08003547-9.2400237 7.05970303 0 8.4924403 11.4842689 6.0366698 11.4842689 9.174085 0 1.330264-1.7582196 1.9101905-3.4791664 1.9101905-2.7679281 0-5.3493579-.8524333-7.705998-2.6263703v5.4910898c2.2071839 1.3983908 5.0872954 2.2166664 8.6414109 2.2166664 4.8631207 0 8.977346-2.6597731 8.977346-6.7524722 0-9.0721779-11.483846-6.6501878-11.483846-9.5156622 0-1.5004865 2.1695075-1.9094356 3.74080593-1.9094356 1.87040296 0 3.85298936.579549 5.79791857 1.6369287v-5.1161098c-1.94471774-.9549065-4.30135782-1.5686132-6.7327164-1.5686132zm21.8443583 4.97929013c2.5812184 0 4.900182.4434843 7.6306451 1.63674v-5.0817633c-2.6180682-.9547178-5.3491464-1.6025822-8.0048911-1.6025822-5.3491657 0-11.7084435 2.0122862-11.7084435 11.6302328 0 9.6175692 6.3594893 11.629478 11.7084435 11.629478 2.6557446 0 5.3866114-.6480531 8.004891-1.6025822v-5.0817633c-2.7304631 1.1932557-5.0496382 1.6371174-7.63064517 1.6371174-2.9552721 0-5.64846243-1.1940105-5.64846243-6.5822497 0-5.388994 2.69319034-6.5826272 5.6484624-6.5826272zm24.0146924-4.7752873v8.9708371h-8.0057369v-8.9708371h-6.4344192v22.7486659h6.4344192v-8.9695161h8.0057368v8.9695161h6.4333811V63.2243808h-6.4333812zm22.966058 0h-6.0601925L318.34725 85.9730467h6.92044486l1.9449292-5.4567434h8.1549623l1.9449292 5.4567434h6.92065633l-9.9129704-22.7486659zm-5.5737439 12.9608742l2.5435419-7.0600804 2.5062884 7.0600805h-5.0498305zm22.5017539 4.5016482V63.2243808h-6.4344192v22.74866587h17.5071887V80.6869032h-11.0727694zm18.6645079 0V63.2243808h-6.434227v22.74866587h17.5065735V80.6869032h-11.0723465z"/>
  </g>
  <a>
    <path fill="#fff" d="M282.10938 33.287109s-2.57287.0143-2.97266.03125c-.39979.01695-.50667.0069-.83203.13086-.32498.124025-.91736.558825-1.30274 1.029297-.38538.470472-.52341 1.091549-.64453 1.527343-.12116.435794-.0937.882813-.0937.882813l-.01 2.410156-2.48047.01172-.0645 2.013672 2.55664-.01367-.0117 11.074219 2.02539-.01367.0117-11.035156h3.97265l.0137-2.025391h-3.99804s-.009-1.341809.0117-1.919922c.0215-.585658.0894-1.128338.3164-1.474609.22707-.346271.55905-.460994.76953-.548828.21048-.08784.58203-.08008.58203-.08008h2.29297l.0391-1.99414zm56.17773 1.007813c-.009.664458-.0137 5.884765-.0137 5.884766-.57933-.535942-2.24175-1.436356-3.57617-1.435547-.19895.000358-.39778.01274-.59571.03711-3.27319.398801-5.66077 3.924248-5.33594 7.878906.32466 3.954851 3.2393 6.845012 6.51368 6.458985 3.27489-.38574 4.55836-2.853574 4.58398-3.867188l-.002-14.951172c-.53448-.02887-.89551-.01527-1.57422-.0059zm14.15625 0c-.67871-.0095-1.04169-.02305-1.57617.0059l-.002 14.951172c.0256 1.013614 1.31109 3.481448 4.58594 3.867188 3.27439.386027 6.18902-2.504134 6.51367-6.458985.32484-3.954658-2.06274-7.480105-5.33593-7.878906-.19793-.02437-.39676-.03675-.59571-.03711-1.33442-.000809-2.99684.899605-3.57617 1.435547 0-.000001-.005-5.220308-.0137-5.884766zm-49.18945 4.070312s-3.59318.141448-5.31446.871094c-.37146.157461-.9068.411222-1.25195.689453-.14329.115506-.29555.3482-.34375.4375-.16067.297508-.10742 1.007813-.10742 1.007813l.0254 11.0625h2.08008v-10.41211s-.0198-.403157.0273-.552734c.0471-.149577.10041-.217701.16211-.300781.23633-.318247 1.20136-.562505 1.9375-.728516.92357-.208279 2.77734-.287109 2.77734-.287109zm-14.91407.236328c-.21391-.000545-.42772.01054-.64062.0332-3.53078.386666-6.10666 3.815646-5.75586 7.662109.35061 3.844862 3.4931 6.654401 7.02344 6.279297 3.53095-.37493 6.11612-3.793857 5.77734-7.640625l-.004-.04492c-.33702-3.574134-3.10194-6.29097-6.40039-6.289063zm33.41407.138672c-.19791-.0094-.39932-.009-.60352.002-3.26711.17539-5.55611 2.754291-5.44531 6.324218.13653 4.398518 1.66201 5.882111 2.95312 6.667969.58433.35566 1.79915.798565 2.88868.820313 1.34683.02688 2.43347-.236766 2.80273-.369141 1.59854-.585555 1.78746-.651517 1.94531-.996094.22901-.500035-.0332-1.720703-.0332-1.720703s-1.22036.694762-2.1836 1c-1.64713.521961-3.04571.209426-3.61914.01563-2.15909-.729734-2.7658-3.453791-2.83789-3.626953 0 0 1.54014-.01588 4.4043-.01953 1.6545-.0021 5.27734-.02734 5.27734-.02734-.0145-.727581-.043-1.636676-.22265-3.474609-.13862-2.110695-2.35748-4.455431-5.32617-4.595704zm-12.92969.138672c-.19897.000621-.39778.01235-.5957.03516-3.27968.369262-5.67249 3.638614-5.34766 7.306641.32559 3.667385 3.24515 6.347501 6.52539 5.990235.70577-.07711 1.68929-.274556 2.36133-.544922.16047-.06456.52344-.267585.52344-.267578.002-.156028.00017-.429635 0-.789063.002.246403.005.473288.004.794922-.002.536964.0123 1.383746-.006 1.947265 0 0-.19728.853926-.45703 1.210938-.25976.357012-1.01367.851562-1.01367.851562s-2.01878.119261-3.02148.13086c-1.18149.01367-3.50391-.103516-3.50391-.103516l.01 1.832032s2.38472.06149 3.58204.06055c.78564-.000622 2.10114-.0745 2.86523-.152343.36212-.03689.40953-.04496.59961-.111329.16843-.05881.18974-.109895.45117-.287109.37476-.254038.89612-.646696 1.21094-1.054687.47126-.61072.73633-2.244141.73633-2.244141l-.0352-11.638672c-.0864-.404381-.974-1.52723-2.125-2.181641-.99935-.568187-2.29955-.784464-2.76367-.785156zm55.32031.429688l-2.1875.03125c0-.000001 1.75162 4.145453 2.65235 6.144531.84775 1.88148 2.45507 5.333984 2.45507 5.333984s.28403.466965.26563.894532c-.0289.671436-.36428 1.400055-.60742 1.847656-.35109.646342-.87305 1.414062-.87305 1.414062s-.34007.270609-.55664.361329c-.0919.03851-.98438.169921-.98438.169921l-1.04297.09766s-.26061-.0041-.32421.07813c-.13721.177449-.0256.499316.043.830078.0427.205593.064.342089.15624.53125.0597.122228.087.152217.13477.185547.10613.07395.13904.07427.37109.07227.55576-.0049 1.83501-.135301 2.16797-.269531.69985-.28214 1.3748-.701739 1.875-1.453125.93716-1.407749 1.28268-2.362095 2.35157-5.007813 1.0689-2.645716 4.27343-11.261718 4.27343-11.261718l-2.01172.08984-3.79492 9.982421s-1.59531-3.223319-2.25195-4.857421c-.65664-1.634104-2.11133-5.214844-2.11133-5.214844zm-29.36719.99414c1.39042-.00073 2.49424.829419 3.49805 1.941407 0 0 .0137 1.826052.043 3.167968.0293 1.341916.002 4.048829.002 4.048829-.74937 1.08675-1.13821 1.958539-3.09375 2.169921-2.21387.07639-4.65877-2.131321-4.91015-5.195312-.25055-3.06392 1.46901-5.794799 4-6.103516.15315-.01907.30698-.02885.46093-.0293zm21.17578 0c.15396.00045.30779.01023.46094.0293 2.53099.308717 4.25055 3.039596 4 6.103516-.25138 3.063991-2.69628 5.271702-4.91015 5.195312-1.95554-.211382-2.34438-1.083172-3.09375-2.169921 0 0-.0275-2.706913.002-4.048829.0293-1.341916.043-3.167968.043-3.167968 1.00381-1.111988 2.10762-1.942137 3.49804-1.941407zm-34.72851.113282c2.53507-.144188 4.31722 1.575718 4.32227 4.818359 0 0-.68997.0118-3.70508-.02344-2.31523-.02706-4.2168.0098-4.2168.0098-.19391-2.622838 1.06454-4.660498 3.59961-4.804687zm-32.90234.002c2.39783-.000678 4.40705 1.989986 4.65039 4.607422l.002.03125c.24652 2.814923-1.63039 5.31747-4.19531 5.59375-2.56639.275444-4.85112-1.782036-5.10547-4.597657-.25516-2.815417 1.61611-5.325595 4.18164-5.609375.15512-.017.31091-.02548.4668-.02539zm20.53125.167969c.46259.000683 1.32734.07726 1.91796.353515.68963.322565 1.10029.874381 1.52735 1.248047l-.002 7.376953-.004.138672c-.00008.0022.00008.0036 0 .0059 0 0-2.32718.591409-3.17383.685547-2.48944.274393-4.29186-1.834911-4.36133-4.68164-.0695-2.846729 1.15699-4.816433 3.64453-5.09961.14989-.01758.30048-.02671.45118-.02734z"/>
  </a>
</svg>
